<svg width="33" height="34" viewBox="0 0 33 34" fill="none" xmlns="http://www.w3.org/2000/svg">
<g clip-path="url(#clip0_92_475)">
<path d="M16.4999 33.1073C18.7002 33.1073 20.7716 32.6861 22.7139 31.8439C24.6563 31.0018 26.3696 29.8385 27.8541 28.3541C29.3385 26.8696 30.5018 25.1563 31.3439 23.2139C32.1861 21.2716 32.6073 19.2002 32.6073 16.9999C32.6073 14.7997 32.1861 12.7283 31.3439 10.786C30.5018 8.84362 29.3411 7.13024 27.8619 5.64582C26.3828 4.16143 24.672 2.99812 22.7298 2.1559C20.7873 1.31369 18.716 0.892578 16.5157 0.892578C16.0946 0.892578 15.7814 1.01101 15.5761 1.24789C15.3708 1.48476 15.2682 1.80849 15.2682 2.21907V8.33039C15.2682 8.67781 15.3761 8.96995 15.5919 9.20682C15.8077 9.4437 16.0841 9.56213 16.421 9.56213C16.7685 9.56213 17.05 9.4437 17.2659 9.20682C17.4817 8.96995 17.5896 8.67781 17.5896 8.33039V2.18748L16.4841 3.57715C18.3581 3.57715 20.1058 3.92193 21.727 4.61148C23.3483 5.30104 24.7721 6.25906 25.9986 7.48554C27.2251 8.71202 28.1831 10.1385 28.8725 11.765C29.5622 13.3916 29.9071 15.1365 29.9071 16.9999C29.9071 18.8634 29.5622 20.6058 28.8725 22.227C28.1831 23.8483 27.2251 25.2721 25.9986 26.4986C24.7721 27.7251 23.3483 28.6857 21.727 29.3806C20.1058 30.0753 18.3634 30.4227 16.4999 30.4227C14.6365 30.4227 12.8916 30.0753 11.265 29.3806C9.63852 28.6857 8.21202 27.7251 6.98554 26.4986C5.75906 25.2721 4.80104 23.8483 4.11148 22.227C3.42193 20.6058 3.07715 18.8634 3.07715 16.9999C3.08767 15.3366 3.37191 13.7653 3.92989 12.2862C4.48785 10.807 5.2669 9.48844 6.26702 8.33039C6.49864 8.02509 6.61971 7.69874 6.63023 7.35132C6.64076 7.00391 6.51443 6.69335 6.25124 6.41962C5.98806 6.14589 5.66431 6.0222 5.28006 6.04852C4.8958 6.07484 4.56154 6.2617 4.27729 6.60912C3.07713 8.01982 2.12965 9.61213 1.43482 11.3861C0.739992 13.16 0.392578 15.0313 0.392578 16.9999C0.392578 19.2002 0.813686 21.2716 1.6559 23.2139C2.49812 25.1563 3.66143 26.8696 5.14582 28.3541C6.63024 29.8385 8.34362 31.0018 10.286 31.8439C12.2283 32.6861 14.2997 33.1073 16.4999 33.1073Z" fill="black"/>
<path d="M18.8995 19.4176C19.3352 18.9604 19.5966 18.4735 19.6838 17.9568C19.7709 17.4399 19.7028 16.9366 19.4795 16.447C19.2563 15.9573 18.8885 15.533 18.3765 15.1739L9.73282 9.13485C9.4605 8.94987 9.2045 8.9009 8.96486 8.98795C8.72519 9.07499 8.56452 9.2355 8.48283 9.46945C8.40113 9.70339 8.45287 9.95637 8.63805 10.2284L14.6675 18.8627C15.0269 19.3849 15.4518 19.7576 15.942 19.9807C16.4321 20.2038 16.9387 20.2717 17.4616 20.1848C17.9844 20.0976 18.4638 19.8418 18.8995 19.4176Z" fill="black"/>
</g>
<defs>
<clipPath id="clip0_92_475">
<rect width="32.2148" height="32.2148" fill="white" transform="translate(0.392578 0.892578)"/>
</clipPath>
</defs>
</svg>
