<svg width="33" height="34" viewBox="0 0 33 34" fill="none" xmlns="http://www.w3.org/2000/svg">
<g clip-path="url(#clip0_92_485)">
<path d="M1.70881 11.3619C2.59728 11.3619 3.0415 10.912 3.0415 10.0121V6.12727C3.0415 5.27127 3.26087 4.62654 3.6996 4.19306C4.13835 3.75958 4.76905 3.54285 5.59169 3.54285H9.57329C10.4727 3.54285 10.9224 3.09839 10.9224 2.20948C10.9224 1.33154 10.4727 0.892578 9.57329 0.892578H5.5588C3.83671 0.892578 2.54517 1.31783 1.68413 2.16833C0.823096 3.01882 0.392578 4.28908 0.392578 5.97911V10.0121C0.392578 10.912 0.831322 11.3619 1.70881 11.3619ZM31.2746 11.3619C32.1631 11.3619 32.6073 10.912 32.6073 10.0121V5.97911C32.6073 4.28908 32.1768 3.01882 31.3159 2.16833C30.4548 1.31783 29.1633 0.892578 27.4412 0.892578H23.4102C22.5217 0.892578 22.0775 1.33154 22.0775 2.20948C22.0775 3.09839 22.5217 3.54285 23.4102 3.54285H27.3918C28.2034 3.54285 28.834 3.75958 29.2837 4.19306C29.7335 4.62654 29.9583 5.27127 29.9583 6.12727V10.0121C29.9583 10.912 30.3971 11.3619 31.2746 11.3619ZM5.5588 33.1073H9.57329C10.4727 33.1073 10.9224 32.6684 10.9224 31.7904C10.9224 30.9014 10.4727 30.457 9.57329 30.457H5.59169C4.76905 30.457 4.13835 30.2402 3.6996 29.8069C3.26087 29.3733 3.0415 28.7285 3.0415 27.8726V23.9877C3.0415 23.0879 2.59728 22.6379 1.70881 22.6379C0.831322 22.6379 0.392578 23.0879 0.392578 23.9877V28.0042C0.392578 29.7053 0.823096 30.981 1.68413 31.8315C2.54517 32.6821 3.83671 33.1073 5.5588 33.1073ZM23.4102 33.1073H27.4412C29.1633 33.1073 30.4548 32.6821 31.3159 31.8315C32.1768 30.981 32.6073 29.7053 32.6073 28.0042V23.9877C32.6073 23.0879 32.1631 22.6379 31.2746 22.6379C30.3971 22.6379 29.9583 23.0879 29.9583 23.9877V27.8726C29.9583 28.7285 29.7335 29.3733 29.2837 29.8069C28.834 30.2402 28.2034 30.457 27.3918 30.457H23.4102C22.5217 30.457 22.0775 30.9014 22.0775 31.7904C22.0775 32.6684 22.5217 33.1073 23.4102 33.1073ZM8.2356 26.1689H24.7771C25.1388 26.1689 25.4073 26.0633 25.5823 25.8521C25.7572 25.6408 25.8447 25.3661 25.8447 25.0282C25.8447 24.5332 25.6546 23.8904 25.2746 23.0997C24.8946 22.3091 24.3215 21.5184 23.5553 20.7277C22.7892 19.937 21.821 19.2701 20.6507 18.727C19.4803 18.1839 18.0988 17.9121 16.5062 17.9121C14.9137 17.9121 13.5322 18.1839 12.3619 18.727C11.1916 19.2701 10.2233 19.937 9.4572 20.7277C8.69105 21.5184 8.11797 22.3091 7.73791 23.0997C7.35784 23.8904 7.16783 24.5332 7.16783 25.0282C7.16783 25.3661 7.25529 25.6408 7.43025 25.8521C7.60519 26.0633 7.87364 26.1689 8.2356 26.1689ZM16.5062 16.4274C17.363 16.4394 18.1442 16.2222 18.85 15.7755C19.5559 15.3289 20.1169 14.7223 20.5331 13.9558C20.9493 13.1892 21.1574 12.3231 21.1574 11.3574C21.1574 10.4521 20.9493 9.62217 20.5331 8.86771C20.1169 8.11326 19.5559 7.50968 18.85 7.057C18.1442 6.60434 17.363 6.378 16.5062 6.378C15.6497 6.378 14.8684 6.60434 14.1626 7.057C13.4568 7.50968 12.8958 8.11326 12.4795 8.86771C12.0633 9.62217 11.8552 10.4521 11.8552 11.3574C11.8552 12.3231 12.0633 13.1862 12.4795 13.9467C12.8958 14.7072 13.4568 15.3108 14.1626 15.7574C14.8684 16.2041 15.6497 16.4274 16.5062 16.4274Z" fill="black"/>
</g>
<defs>
<clipPath id="clip0_92_485">
<rect width="32.2148" height="32.2148" fill="white" transform="translate(0.392578 0.892578)"/>
</clipPath>
</defs>
</svg>
