<svg width="29" height="34" viewBox="0 0 29 34" fill="none" xmlns="http://www.w3.org/2000/svg">
<g clip-path="url(#clip0_92_469)">
<path fill-rule="evenodd" clip-rule="evenodd" d="M14.7594 4.19128C14.6119 4.05961 14.3917 4.05961 14.2442 4.19128L3.29121 13.9689C3.20631 14.0447 3.15762 14.1542 3.15762 14.2693V29.5084C3.15762 29.7289 3.33275 29.9075 3.5488 29.9075H10.1988V20.0899C10.1988 19.3406 10.7943 18.733 11.5289 18.733H17.4748C18.2093 18.733 18.8047 19.3406 18.8047 20.0899V29.9075H25.4548C25.6708 29.9075 25.8461 29.7289 25.8461 29.5084V14.2693C25.8461 14.1542 25.7973 14.0447 25.7124 13.9689L14.7594 4.19128ZM12.6987 2.3892C13.7311 1.46759 15.2726 1.4676 16.305 2.3892L27.2581 12.1669C27.8523 12.6973 28.1931 13.4637 28.1931 14.2693V29.5084C28.1931 31.0513 26.9672 32.302 25.4548 32.302H17.7877C17.0532 32.302 16.4577 31.6945 16.4577 30.9451V21.1275H12.5459V30.9451C12.5459 31.6945 11.9505 32.302 11.2159 32.302H3.5488C2.03651 32.302 0.810547 31.0513 0.810547 29.5084V14.2693C0.810547 13.4637 1.15141 12.6973 1.74564 12.1669L12.6987 2.3892Z" fill="black"/>
</g>
<defs>
<clipPath id="clip0_92_469">
<rect width="28.9933" height="32.2148" fill="white" transform="translate(0.00390625 0.892578)"/>
</clipPath>
</defs>
</svg>
