<svg width="33" height="34" viewBox="0 0 33 34" fill="none" xmlns="http://www.w3.org/2000/svg">
<g clip-path="url(#clip0_92_494)">
<path d="M31.4307 2.21019C30.5479 1.3314 29.0773 0.892578 27.3117 0.892578H5.98211C4.06957 0.892578 2.74594 1.33198 1.7162 2.21019C0.833397 3.08899 0.392578 4.4066 0.392578 6.31046V27.6895C0.392578 29.4465 0.83398 30.9109 1.7162 31.7897C2.599 32.6685 4.06957 33.1073 5.83518 33.1073H27.1647C28.9298 33.1073 30.4009 32.6679 31.2837 31.7897C32.1665 30.9109 32.6073 29.5933 32.6073 27.6895V6.31046C32.6073 4.55345 32.1659 3.08899 31.2837 2.21019H31.4307ZM29.9595 27.5432C29.9595 28.422 29.665 29.1539 29.2242 29.5933C28.7834 30.0327 28.0475 30.3253 27.1647 30.3253H5.9827C5.09989 30.3253 4.51155 30.0321 3.92321 29.5933C3.48181 29.1539 3.18793 28.422 3.18793 27.5432V6.45732C3.18793 5.57852 3.48239 4.84658 3.92321 4.40718C4.36461 3.96778 5.09989 3.67524 5.9827 3.67524H27.1647C28.0475 3.67524 28.7828 3.67524 29.2242 4.40718C29.6656 4.84658 29.9595 5.57852 29.9595 6.45732V27.5432ZM26.2819 14.6573C26.2819 14.9504 26.2819 15.2429 25.9875 15.3892C25.8405 15.5355 25.5461 15.6823 25.2522 15.6823H7.89466C7.6002 15.6823 7.30632 15.6823 7.15938 15.3892C7.15938 15.2429 6.86492 14.9498 6.86492 14.6573C6.86492 14.3647 6.86492 14.0716 7.15938 13.9253C7.15938 13.7791 7.60078 13.6322 7.89466 13.6322H25.2522C25.5467 13.6322 25.8405 13.6322 25.9875 13.9253C26.1344 14.0716 26.2819 14.3647 26.2819 14.6573ZM26.2819 8.65314C26.2819 8.94627 26.2819 9.23881 25.9875 9.38509C25.8405 9.38509 25.5461 9.67821 25.2522 9.67821H7.89466C7.6002 9.67821 7.30632 9.67821 7.15938 9.38509C7.15938 9.38509 6.86492 8.94569 6.86492 8.65314C6.86492 8.3606 6.86492 8.06747 7.15938 7.9212C7.15938 7.9212 7.60078 7.62808 7.89466 7.62808H25.2522C25.5467 7.62808 25.8405 7.62808 25.9875 7.9212C26.1344 8.21433 26.2819 8.3606 26.2819 8.65314ZM26.2819 20.6608C26.2819 20.954 26.2819 21.2465 25.9875 21.3928C25.8405 21.539 25.5461 21.6859 25.2522 21.6859H7.89466C7.6002 21.6859 7.30632 21.6859 7.15938 21.3928C7.15938 21.2465 6.86492 20.9534 6.86492 20.6608C6.86492 20.3683 6.86492 20.0752 7.15938 19.9289C7.15938 19.7826 7.60078 19.6358 7.89466 19.6358H25.2522C25.5467 19.6358 25.8405 19.6358 25.9875 19.9289C26.1344 20.0752 26.2819 20.3683 26.2819 20.6608ZM26.2819 26.5181C26.2819 26.8112 26.2819 27.1038 25.9875 27.2501C25.8405 27.3963 25.5461 27.5432 25.2522 27.5432H7.89466C7.6002 27.5432 7.30632 27.5432 7.15938 27.2501C7.15938 27.1038 6.86492 26.8107 6.86492 26.5181C6.86492 26.2256 6.86492 25.9324 7.15938 25.7862C7.15938 25.6399 7.60078 25.493 7.89466 25.493H25.2522C25.5467 25.493 25.8405 25.493 25.9875 25.7862C26.1344 25.9324 26.2819 26.2256 26.2819 26.5181Z" fill="black"/>
</g>
<defs>
<clipPath id="clip0_92_494">
<rect width="32.2148" height="32.2148" fill="white" transform="translate(0.392578 0.892578)"/>
</clipPath>
</defs>
</svg>
