<svg width="23" height="36" viewBox="0 0 23 36" fill="none" xmlns="http://www.w3.org/2000/svg">
<g clip-path="url(#clip0_92_479)">
<path d="M6.18128 27.8962H16.8036C17.058 27.8962 17.2583 27.8197 17.4051 27.6665C17.5518 27.5135 17.6251 27.3094 17.6251 27.0543V24.6051C17.6251 23.8703 17.7987 23.1663 18.146 22.4927C18.4933 21.8192 18.9211 21.1329 19.4298 20.4338C19.9384 19.7347 20.4494 18.9796 20.9629 18.1683C21.4764 17.3571 21.9068 16.4413 22.254 15.4207C22.6013 14.4002 22.7749 13.2267 22.7749 11.9001C22.7749 10.1652 22.5059 8.58349 21.968 7.15482C21.43 5.72614 20.6646 4.50156 19.6719 3.48108C18.679 2.46059 17.4906 1.67227 16.1066 1.11611C14.7226 0.559941 13.1845 0.28186 11.4924 0.28186C9.81006 0.28186 8.27688 0.559941 6.89287 1.11611C5.50885 1.67227 4.32044 2.46059 3.32766 3.48108C2.33489 4.50156 1.56951 5.72614 1.03155 7.15482C0.493588 8.58349 0.224609 10.1652 0.224609 11.9001C0.224609 13.2267 0.398224 14.4002 0.745453 15.4207C1.09268 16.4413 1.52304 17.3571 2.03654 18.1683C2.55006 18.9796 3.06112 19.7347 3.56974 20.4338C4.07836 21.1329 4.50627 21.8192 4.8535 22.4927C5.20073 23.1663 5.37435 23.8703 5.37435 24.6051V27.0543C5.37435 27.3094 5.4477 27.5135 5.59442 27.6665C5.74113 27.8197 5.93675 27.8962 6.18128 27.8962ZM7.56041 26.84C7.56041 26.595 7.56041 26.35 7.56041 26.1052C7.56041 25.8602 7.56041 25.6154 7.56041 25.3706C7.56041 25.1256 7.56041 24.8806 7.56041 24.6357C7.56041 23.7376 7.38925 22.906 7.04692 22.1405C6.70458 21.3753 6.2791 20.6252 5.77049 19.8905C5.26187 19.1557 4.75325 18.3954 4.24463 17.6097C3.73602 16.8238 3.30809 15.9692 2.96087 15.0457C2.61364 14.1222 2.44002 13.0787 2.44002 11.9154C2.44002 10.0479 2.81659 8.41512 3.56974 7.01705C4.32289 5.61898 5.37925 4.53216 6.7388 3.75661C8.09838 2.98104 9.68291 2.59325 11.4924 2.59325C13.3117 2.59325 14.8987 2.98104 16.2533 3.75661C17.608 4.53216 18.6643 5.61898 19.4224 7.01705C20.1805 8.41512 20.5595 10.0479 20.5595 11.9154C20.5595 13.0787 20.3859 14.1222 20.0386 15.0457C19.6913 15.9692 19.2635 16.8238 18.7549 17.6097C18.2464 18.3954 17.7377 19.1557 17.229 19.8905C16.7203 20.6252 16.2949 21.3753 15.9527 22.1405C15.6103 22.906 15.4391 23.7376 15.4391 24.6357C15.4391 25.0031 15.4391 25.3704 15.4391 25.7378C15.4391 26.1052 15.4391 26.4726 15.4391 26.84L16.6127 25.5848H6.38668L7.56041 26.84ZM11.5071 35.7181C12.5145 35.7181 13.3484 35.4936 14.0086 35.0445C14.6688 34.5956 15.0332 34.0036 15.1016 33.269H7.91255C7.98101 34.0036 8.34291 34.5956 8.99824 35.0445C9.65356 35.4936 10.4899 35.7181 11.5071 35.7181ZM6.75348 32.029H16.2754C16.6471 32.029 16.965 31.8887 17.229 31.6081C17.4932 31.3276 17.6251 30.9882 17.6251 30.5902C17.6251 30.1921 17.4932 29.8529 17.229 29.5722C16.965 29.2917 16.6471 29.1514 16.2754 29.1514H6.75348C6.37201 29.1514 6.04923 29.2917 5.78515 29.5722C5.52107 29.8529 5.38902 30.1921 5.38902 30.5902C5.38902 30.9882 5.52107 31.3276 5.78515 31.6081C6.04923 31.8887 6.37201 32.029 6.75348 32.029Z" fill="black"/>
</g>
<defs>
<clipPath id="clip0_92_479">
<rect width="22.5503" height="35.4362" fill="white" transform="translate(0.224609 0.28186)"/>
</clipPath>
</defs>
</svg>
