<svg width="39" height="36" viewBox="0 0 39 36" fill="none" xmlns="http://www.w3.org/2000/svg">
<g clip-path="url(#clip0_92_472)">
<path d="M19.5006 32.3419C21.1034 32.3419 22.6099 32.0373 24.0203 31.4283C25.4308 30.8191 26.6703 29.9757 27.7387 28.8978C28.8073 27.8198 29.6432 26.5694 30.2469 25.1464C30.8508 23.7237 31.1527 22.1985 31.1527 20.5708C31.1527 18.9432 30.8508 17.4205 30.2469 16.003C29.6432 14.5855 28.8073 13.3379 27.7387 12.2599C26.6703 11.182 25.4308 10.3412 24.0203 9.73756C22.6099 9.13391 21.1034 8.83209 19.5006 8.83209C17.898 8.83209 16.3914 9.13391 14.9811 9.73756C13.5707 10.3412 12.3312 11.182 11.2627 12.2599C10.1942 13.3379 9.35548 14.5855 8.74645 16.003C8.13741 17.4205 7.8329 18.9432 7.8329 20.5708C7.8329 22.2093 8.13741 23.7372 8.74645 25.1546C9.35548 26.5721 10.1942 27.8198 11.2627 28.8978C12.3312 29.9757 13.5707 30.8191 14.9811 31.4283C16.3914 32.0373 17.898 32.3419 19.5006 32.3419ZM19.5006 11.4515C20.7508 11.4515 21.9234 11.6886 23.0187 12.1629C24.1139 12.6372 25.0755 13.292 25.9036 14.1274C26.7317 14.9628 27.3808 15.933 27.8508 17.0378C28.321 18.1428 28.5561 19.3204 28.5561 20.5708C28.5561 21.832 28.321 23.0149 27.8508 24.1197C27.3808 25.2247 26.7317 26.1949 25.9036 27.0302C25.0755 27.8657 24.1139 28.5206 23.0187 28.9948C21.9234 29.4692 20.7508 29.7063 19.5006 29.7063C18.2506 29.7063 17.078 29.4692 15.9828 28.9948C14.8875 28.5206 13.9232 27.8657 13.0898 27.0302C12.2564 26.1949 11.6046 25.2247 11.1345 24.1197C10.6644 23.0149 10.4293 21.832 10.4293 20.5708C10.4293 19.3204 10.6644 18.1428 11.1345 17.0378C11.6046 15.933 12.2564 14.9628 13.0898 14.1274C13.9232 13.292 14.8875 12.6372 15.9828 12.1629C17.078 11.6886 18.2506 11.4515 19.5006 11.4515ZM13.7309 27.8791L20.3662 21.169C20.612 20.9211 20.7349 20.6381 20.7349 20.3202C20.7349 20.0021 20.612 19.7137 20.3662 19.4552C20.1631 19.2287 19.8907 19.1157 19.5487 19.1157C19.2068 19.1157 18.9238 19.2287 18.6994 19.4552L12.0641 26.149L13.7309 27.8791ZM7.20784 34.8964C7.76345 34.8964 8.23357 34.7025 8.61822 34.3144C9.00288 33.9264 9.19522 33.452 9.19522 32.8915C9.19522 32.331 9.00022 31.8568 8.61021 31.4686C8.22022 31.0806 7.75277 30.8865 7.20784 30.8865C6.65223 30.8865 6.18209 31.0833 5.79743 31.4768C5.41278 31.8701 5.22044 32.3418 5.22044 32.8915C5.22044 33.452 5.41546 33.9264 5.80545 34.3144C6.19544 34.7025 6.66291 34.8964 7.20784 34.8964ZM2.17528 22.592C2.73089 22.592 3.20103 22.3926 3.58567 21.9937C3.97033 21.5948 4.16266 21.1206 4.16266 20.5708C4.16266 20.0103 3.96766 19.5359 3.57767 19.1479C3.18768 18.7599 2.72021 18.5658 2.17528 18.5658C1.61967 18.5658 1.14687 18.7624 0.756869 19.1559C0.366873 19.5494 0.171875 20.0211 0.171875 20.5708C0.171875 21.1313 0.369545 21.6083 0.764883 22.0016C1.16022 22.3951 1.63035 22.592 2.17528 22.592ZM7.20784 10.2873C7.76345 10.2873 8.23357 10.0906 8.61822 9.69715C9.00288 9.30369 9.19522 8.83209 9.19522 8.28234C9.19522 7.72182 9.00022 7.24754 8.61021 6.85948C8.22022 6.47144 7.75277 6.27741 7.20784 6.27741C6.65223 6.27741 6.18209 6.47144 5.79743 6.85948C5.41278 7.24754 5.22044 7.72182 5.22044 8.28234C5.22044 8.84288 5.41546 9.31718 5.80545 9.70522C6.19544 10.0933 6.66291 10.2873 7.20784 10.2873ZM19.5006 5.11323C20.0563 5.11323 20.5265 4.91651 20.9111 4.52307C21.2957 4.12962 21.4881 3.65263 21.4881 3.09211C21.4881 2.53159 21.2932 2.05729 20.903 1.66924C20.5131 1.28119 20.0456 1.08716 19.5006 1.08716C18.945 1.08716 18.475 1.28388 18.0904 1.67732C17.7057 2.07077 17.5134 2.54236 17.5134 3.09211C17.5134 3.65263 17.7083 4.12962 18.0984 4.52307C18.4884 4.91651 18.9558 5.11323 19.5006 5.11323ZM31.7776 10.255C32.3332 10.255 32.8033 10.0582 33.188 9.66479C33.5726 9.27135 33.7651 8.79976 33.7651 8.25001C33.7651 7.68949 33.5701 7.2152 33.1799 6.82715C32.79 6.43908 32.3225 6.24505 31.7776 6.24505C31.2113 6.24505 30.7358 6.43908 30.3511 6.82715C29.9665 7.2152 29.7742 7.68949 29.7742 8.25001C29.7742 8.81053 29.9692 9.28482 30.3592 9.67289C30.7492 10.0609 31.2219 10.255 31.7776 10.255ZM36.8262 22.592C37.3819 22.592 37.8546 22.3926 38.2446 21.9937C38.6345 21.5948 38.8296 21.1206 38.8296 20.5708C38.8296 20.0103 38.632 19.5359 38.2367 19.1479C37.8412 18.7599 37.3711 18.5658 36.8262 18.5658C36.2598 18.5658 35.7843 18.7624 35.3997 19.1559C35.015 19.5494 34.8227 20.0211 34.8227 20.5708C34.8227 21.1313 35.0205 21.6083 35.4158 22.0016C35.8111 22.3951 36.2812 22.592 36.8262 22.592ZM31.7615 34.9127C32.3172 34.9127 32.7874 34.7186 33.1719 34.3305C33.5567 33.9425 33.749 33.4683 33.749 32.9078C33.749 32.3471 33.5539 31.8729 33.1638 31.4848C32.7739 31.0968 32.3064 30.9027 31.7615 30.9027C31.1953 30.9027 30.7198 31.0994 30.3352 31.4929C29.9504 31.8864 29.7581 32.358 29.7581 32.9078C29.7581 33.4683 29.9531 33.9425 30.3431 34.3305C30.7331 34.7186 31.2058 34.9127 31.7615 34.9127Z" fill="black"/>
</g>
<defs>
<clipPath id="clip0_92_472">
<rect width="38.6577" height="35.4362" fill="white" transform="translate(0.171875 0.28186)"/>
</clipPath>
</defs>
</svg>
