<svg width="29" height="34" viewBox="0 0 29 34" fill="none" xmlns="http://www.w3.org/2000/svg">
<g clip-path="url(#clip0_92_482)">
<path d="M14.5005 33.1073C14.6401 33.1073 14.8145 33.0808 15.0239 33.0276C15.2332 32.9745 15.4484 32.8947 15.6693 32.7884C18.1582 31.5127 20.2544 30.3829 21.9581 29.3994C23.6619 28.4161 25.0314 27.4619 26.0663 26.5368C27.1015 25.6119 27.8487 24.6099 28.308 23.5307C28.7675 22.4515 28.9972 21.1837 28.9972 19.7271V7.52692C28.9972 6.687 28.8054 6.08629 28.4215 5.72479C28.0377 5.36331 27.4736 5.03904 26.7293 4.75199C26.3222 4.59251 25.7582 4.38783 25.0372 4.13797C24.3161 3.88813 23.5225 3.61701 22.656 3.32465C21.7895 3.03227 20.9201 2.74254 20.0479 2.45548C19.1757 2.16842 18.379 1.90793 17.6581 1.67403C16.937 1.44012 16.3729 1.25938 15.9659 1.1318C15.7333 1.06801 15.492 1.01219 15.2419 0.964343C14.9919 0.9165 14.7447 0.892578 14.5005 0.892578C14.2563 0.892578 14.0121 0.919158 13.7678 0.972318C13.5236 1.02548 13.2852 1.07864 13.0526 1.1318C12.6339 1.23812 12.0641 1.40557 11.343 1.63416C10.622 1.86274 9.82823 2.12323 8.9618 2.41561C8.09539 2.70799 7.22605 3.00302 6.35381 3.30073C5.48158 3.59841 4.68494 3.87484 3.96387 4.13002C3.24283 4.38517 2.67878 4.59251 2.27173 4.75199C1.53905 5.02842 0.977907 5.35004 0.588306 5.71684C0.198706 6.08363 0.00390625 6.687 0.00390625 7.52692V19.7271C0.00390625 21.1837 0.236503 22.4489 0.701697 23.5226C1.16689 24.5965 1.91701 25.5958 2.95207 26.5209C3.98713 27.4458 5.35655 28.4027 7.06032 29.3917C8.7641 30.3804 10.8546 31.5127 13.3317 32.7884C13.5527 32.8947 13.7678 32.9745 13.9772 33.0276C14.1865 33.0808 14.361 33.1073 14.5005 33.1073ZM14.5005 30.2209C14.361 30.2209 14.2098 30.1916 14.047 30.1333C13.8841 30.0746 13.6748 29.9762 13.419 29.838C11.407 28.7218 9.71774 27.7623 8.35124 26.9595C6.98473 26.1568 5.89442 25.3913 5.08034 24.6629C4.26624 23.9347 3.67893 23.1399 3.31842 22.2788C2.95789 21.4176 2.77761 20.3704 2.77761 19.1371V8.0213C2.77761 7.7555 2.81542 7.55615 2.89101 7.42325C2.96662 7.29035 3.12653 7.18138 3.37075 7.09634C3.8941 6.90495 4.50466 6.6923 5.20247 6.4584C5.90024 6.22451 6.63873 5.97997 7.41794 5.72479C8.19715 5.46964 8.97635 5.21714 9.75554 4.96728C10.5347 4.71742 11.2732 4.47555 11.971 4.24164C12.6688 4.00775 13.2794 3.79511 13.8027 3.60372C13.9423 3.55057 14.0702 3.51336 14.1865 3.4921C14.3028 3.47082 14.4075 3.46019 14.5005 3.46019C14.5936 3.46019 14.6982 3.47082 14.8145 3.4921C14.9308 3.51336 15.0588 3.55057 15.1983 3.60372C15.7217 3.79511 16.3323 4.0104 17.0301 4.24961C17.7278 4.48884 18.4635 4.7387 19.2368 4.99917C20.0101 5.25964 20.7836 5.51747 21.5569 5.77265C22.3302 6.0278 23.0687 6.26969 23.7724 6.49829C24.476 6.72687 25.1011 6.92623 25.6478 7.09634C25.8804 7.17075 26.0344 7.27708 26.1101 7.41528C26.1857 7.5535 26.2233 7.7555 26.2233 8.0213V19.1371C26.2233 20.3704 26.046 21.4176 25.6913 22.2788C25.3366 23.1399 24.7494 23.9321 23.9295 24.655C23.1096 25.3781 22.0163 26.1435 20.6497 26.9514C19.2833 27.7595 17.5941 28.7218 15.5821 29.838C15.3262 29.9762 15.1169 30.0746 14.9541 30.1333C14.7913 30.1916 14.6401 30.2209 14.5005 30.2209ZM8.20295 22.518C8.20295 23.6876 8.79607 24.2723 9.98233 24.2723H19.0187C20.2166 24.2723 20.8156 23.6876 20.8156 22.518V16.1707C20.8156 15.0756 20.2979 14.4962 19.2629 14.4324V12.5505C19.2629 11.0833 18.8238 9.89784 17.9458 8.99414C17.0677 8.09042 15.9194 7.63856 14.5005 7.63856C13.0817 7.63856 11.9332 8.09042 11.0552 8.99414C10.1771 9.89784 9.7381 11.0833 9.7381 12.5505V14.4324C8.71467 14.4962 8.20295 15.0756 8.20295 16.1707V22.518ZM11.5524 14.4164V12.3751C11.5524 11.4395 11.8227 10.6846 12.3636 10.1105C12.9043 9.53636 13.6167 9.2493 14.5005 9.2493C15.3844 9.2493 16.0967 9.53636 16.6375 10.1105C17.1782 10.6846 17.4487 11.4395 17.4487 12.3751V14.4164H11.5524Z" fill="black"/>
</g>
<defs>
<clipPath id="clip0_92_482">
<rect width="28.9933" height="32.2148" fill="white" transform="translate(0.00390625 0.892578)"/>
</clipPath>
</defs>
</svg>
