<svg width="21" height="36" viewBox="0 0 21 36" fill="none" xmlns="http://www.w3.org/2000/svg">
<g clip-path="url(#clip0_92_488)">
<path d="M8.46307 35.7182C9.6219 35.7182 10.7083 35.5029 11.7223 35.0723C12.7363 34.6418 13.6269 34.0437 14.3941 33.2783C15.1612 32.5129 15.7621 31.6276 16.1968 30.6228C16.6313 29.6182 16.8486 28.5417 16.8486 27.3934C16.8486 26.1814 16.6017 25.0492 16.1082 23.9966C15.6146 22.9439 14.885 21.9872 13.9193 21.1259C13.7476 20.9664 13.6349 20.8229 13.5813 20.6954C13.5276 20.5678 13.5008 20.3871 13.5008 20.1532L13.5169 5.83186C13.5169 4.72614 13.305 3.75597 12.8811 2.92137C12.4573 2.08675 11.8671 1.43821 11.1107 0.97571C10.3542 0.513225 9.47169 0.281982 8.46307 0.281982C7.44372 0.281982 6.55312 0.513225 5.79129 0.97571C5.02946 1.43821 4.43396 2.08675 4.00476 2.92137C3.57555 3.75597 3.36095 4.72614 3.36095 5.83186L3.39315 20.1532C3.39315 20.3871 3.36364 20.5678 3.30462 20.6954C3.2456 20.8229 3.13026 20.9664 2.95857 21.1259C2.00361 21.9872 1.27666 22.9439 0.777713 23.9966C0.27877 25.0492 0.0292969 26.1814 0.0292969 27.3934C0.0292969 28.5417 0.246579 29.6182 0.681143 30.6228C1.11571 31.6276 1.71927 32.5129 2.49183 33.2783C3.26438 34.0437 4.16034 34.6418 5.17968 35.0723C6.19904 35.5029 7.29348 35.7182 8.46307 35.7182ZM8.46307 33.4058C7.33643 33.4058 6.3144 33.1348 5.39697 32.5926C4.47956 32.0503 3.74992 31.3219 3.20806 30.4076C2.66619 29.4932 2.39526 28.4886 2.39526 27.3934C2.39526 26.3941 2.62595 25.4638 3.08735 24.6025C3.54873 23.7414 4.20327 23.0292 5.05093 22.4656C5.29772 22.2955 5.47475 22.1199 5.58206 21.9392C5.68937 21.7584 5.74302 21.5033 5.74302 21.1737V5.92754C5.74302 4.92814 5.99249 4.12809 6.49143 3.52738C6.99038 2.92669 7.64759 2.62633 8.46307 2.62633C9.25707 2.62633 9.90356 2.92669 10.4025 3.52738C10.9015 4.12809 11.1509 4.92814 11.1509 5.92754V21.1737C11.1509 21.5033 11.2019 21.7584 11.3038 21.9392C11.4058 22.1199 11.5855 22.2955 11.843 22.4656C12.6907 23.0292 13.3452 23.7414 13.8066 24.6025C14.268 25.4638 14.4987 26.3941 14.4987 27.3934C14.4987 28.4886 14.2251 29.4932 13.6778 30.4076C13.1306 31.3219 12.401 32.0503 11.4889 32.5926C10.5769 33.1348 9.56825 33.4058 8.46307 33.4058ZM8.44697 31.2529C9.16587 31.2529 9.81772 31.0775 10.4025 30.7265C10.9873 30.3757 11.4567 29.9078 11.8108 29.3231C12.1649 28.7384 12.3419 28.0898 12.3419 27.3775C12.3419 26.6332 12.1488 25.966 11.7625 25.376C11.3763 24.786 10.8719 24.3208 10.2496 23.9806C9.99208 23.8424 9.81236 23.6962 9.71041 23.542C9.60849 23.3879 9.55752 23.1195 9.55752 22.7366V14.2205C9.55752 13.8271 9.45021 13.5161 9.23563 13.2875C9.02102 13.0589 8.75813 12.9446 8.44697 12.9446C8.1358 12.9446 7.87292 13.0589 7.65832 13.2875C7.44372 13.5161 7.33641 13.8271 7.33641 14.2205V22.7366C7.33641 23.1195 7.28545 23.3879 7.18352 23.542C7.08158 23.6962 6.90185 23.8424 6.64432 23.9806C6.022 24.3208 5.51768 24.786 5.13139 25.376C4.74512 25.966 4.55198 26.6332 4.55198 27.3775C4.55198 28.0898 4.72634 28.7384 5.07506 29.3231C5.4238 29.9078 5.89324 30.3757 6.4834 30.7265C7.07352 31.0775 7.72805 31.2529 8.44697 31.2529ZM16.5266 6.13486H20.0192C20.309 6.13486 20.5396 6.04184 20.7113 5.85578C20.883 5.66972 20.9689 5.45443 20.9689 5.20989C20.9689 4.96537 20.883 4.75006 20.7113 4.564C20.5396 4.37795 20.309 4.28491 20.0192 4.28491H16.5266C16.2477 4.28491 16.0197 4.37795 15.8426 4.564C15.6656 4.75006 15.577 4.96537 15.577 5.20989C15.577 5.45443 15.6656 5.66972 15.8426 5.85578C16.0197 6.04184 16.2477 6.13486 16.5266 6.13486ZM16.5266 10.6162H20.0192C20.309 10.6162 20.5396 10.5232 20.7113 10.3372C20.883 10.1511 20.9689 9.9358 20.9689 9.69125C20.9689 9.43608 20.883 9.21813 20.7113 9.03739C20.5396 8.85665 20.309 8.76627 20.0192 8.76627H16.5266C16.2477 8.76627 16.0197 8.85665 15.8426 9.03739C15.6656 9.21813 15.577 9.43608 15.577 9.69125C15.577 9.9358 15.6656 10.1511 15.8426 10.3372C16.0197 10.5232 16.2477 10.6162 16.5266 10.6162ZM16.5266 15.0976H20.0192C20.309 15.0976 20.5396 15.0046 20.7113 14.8186C20.883 14.6325 20.9689 14.4172 20.9689 14.1726C20.9689 13.9174 20.883 13.6968 20.7113 13.5108C20.5396 13.3247 20.309 13.2317 20.0192 13.2317H16.5266C16.2477 13.2317 16.0197 13.3247 15.8426 13.5108C15.6656 13.6968 15.577 13.9174 15.577 14.1726C15.577 14.4172 15.6656 14.6325 15.8426 14.8186C16.0197 15.0046 16.2477 15.0976 16.5266 15.0976ZM16.5266 19.5789H20.0192C20.309 19.5789 20.5396 19.4858 20.7113 19.2998C20.883 19.1138 20.9689 18.8931 20.9689 18.638C20.9689 18.3934 20.883 18.1781 20.7113 17.992C20.5396 17.806 20.309 17.7131 20.0192 17.7131H16.5266C16.2477 17.7131 16.0197 17.806 15.8426 17.992C15.6656 18.1781 15.577 18.3934 15.577 18.638C15.577 18.8931 15.6656 19.1138 15.8426 19.2998C16.0197 19.4858 16.2477 19.5789 16.5266 19.5789Z" fill="black"/>
</g>
<defs>
<clipPath id="clip0_92_488">
<rect width="20.9396" height="35.4362" fill="white" transform="translate(0.0292969 0.281982)"/>
</clipPath>
</defs>
</svg>
