<svg width="23" height="34" viewBox="0 0 23 34" fill="none" xmlns="http://www.w3.org/2000/svg">
<g clip-path="url(#clip0_92_491)">
<path d="M11.4997 33.1073C13.7559 33.1073 15.73 32.6592 17.4221 31.763C19.1141 30.8668 20.4292 29.6101 21.3675 27.9926C22.3057 26.3754 22.7749 24.4902 22.7749 22.3373C22.7749 21.2768 22.6556 20.2321 22.4169 19.2033C22.1783 18.1745 21.8855 17.2042 21.5384 16.292C21.1913 15.3799 20.8604 14.5739 20.546 13.8739C19.6781 11.9543 18.6178 9.98165 17.3651 7.95597C16.1123 5.93027 14.8893 4.02124 13.6962 2.22889C13.4142 1.80467 13.0969 1.47589 12.7444 1.24257C12.3919 1.00924 11.977 0.892578 11.4997 0.892578C11.0225 0.892578 10.6103 1.00924 10.2632 1.24257C9.91611 1.47589 9.59614 1.80467 9.30329 2.22889C8.121 4.02124 6.90075 5.93027 5.64252 7.95597C4.38431 9.98165 3.32133 11.9543 2.4536 13.8739C2.13905 14.5739 1.80823 15.3799 1.46113 16.292C1.11404 17.2042 0.821178 18.1745 0.582551 19.2033C0.343923 20.2321 0.224609 21.2768 0.224609 22.3373C0.224609 24.4902 0.693729 26.3754 1.63197 27.9926C2.5702 29.6101 3.88537 30.8668 5.57745 31.763C7.26953 32.6592 9.24363 33.1073 11.4997 33.1073ZM11.4997 30.4983C9.77511 30.4983 8.26743 30.1589 6.97666 29.4801C5.68591 28.8014 4.68258 27.8496 3.96671 26.6246C3.25083 25.3996 2.89289 23.9706 2.89289 22.3373C2.89289 21.0328 3.10169 19.7627 3.51929 18.5271C3.93689 17.2917 4.37347 16.1594 4.82902 15.1307C5.74015 13.0414 6.76786 11.1085 7.9122 9.33204C9.05653 7.55559 10.1981 5.82952 11.337 4.15382C11.3804 4.05837 11.4374 4.0133 11.5079 4.0186C11.5784 4.0239 11.6353 4.06899 11.6787 4.15382C12.8068 5.82952 13.9457 7.55295 15.0954 9.32408C16.2452 11.0952 17.2648 13.0255 18.1542 15.1148C18.6097 16.1541 19.0517 17.2917 19.4802 18.5271C19.9086 19.7627 20.1229 21.0328 20.1229 22.3373C20.1229 23.9706 19.7622 25.3996 19.0408 26.6246C18.3195 27.8496 17.3136 28.8014 16.0228 29.4801C14.732 30.1589 13.2244 30.4983 11.4997 30.4983Z" fill="black"/>
</g>
<defs>
<clipPath id="clip0_92_491">
<rect width="22.5503" height="32.2148" fill="white" transform="translate(0.224609 0.892578)"/>
</clipPath>
</defs>
</svg>
