<svg width="22" height="25" viewBox="0 0 22 25" fill="none" xmlns="http://www.w3.org/2000/svg">
<g clip-path="url(#clip0_21_87)">
<path d="M18.13 15.97L16.41 18.02C16.44 18.15 16.48 18.28 16.52 18.41C16.56 18.54 16.6 18.67 16.65 18.81C16.72 18.99 16.77 19.12 16.82 19.21C16.87 19.3 16.97 19.43 17.13 19.62L20.21 23.15C20.41 23.39 20.68 23.51 21.03 23.51C21.31 23.51 21.54 23.42 21.73 23.25C21.92 23.08 22.01 22.85 22.01 22.57C22.01 22.37 21.97 22.2 21.88 22.06C21.79 21.92 21.68 21.78 21.54 21.63L18.65 18.34L18.14 15.98H18.13V15.97ZM16.18 5.62999C15.84 5.82999 15.45 5.93999 15.03 5.93999C14.61 5.93999 14.22 5.83999 13.87 5.62999C13.52 5.42999 13.24 5.15999 13.03 4.81999C12.82 4.48999 12.72 4.11999 12.72 3.72999C12.72 3.33999 12.82 2.94999 13.03 2.59999C13.24 2.25999 13.51 1.98999 13.87 1.78999C14.22 1.58999 14.61 1.48999 15.03 1.48999C15.45 1.48999 15.84 1.58999 16.18 1.78999C16.52 1.98999 16.8 2.25999 17.01 2.59999C17.22 2.93999 17.32 3.31999 17.32 3.72999C17.32 4.13999 17.22 4.47999 17.01 4.81999C16.8 5.14999 16.53 5.41999 16.18 5.62999ZM10.96 21.74L12.98 17.8C13.07 17.63 13.16 17.46 13.26 17.3C13.36 17.14 13.46 16.99 13.56 16.86L14.85 15.1L14.76 14.84C14.58 14.32 14.45 13.87 14.37 13.48C14.29 13.09 14.23 12.64 14.19 12.13L13.98 9.22999C13.95 8.76999 14.01 8.34999 14.18 7.96999C14.34 7.58999 14.6 7.27999 14.94 7.05999C15.28 6.82999 15.7 6.71999 16.19 6.71999C16.75 6.71999 17.24 6.85999 17.66 7.14999C18.08 7.43999 18.55 7.80999 19.06 8.27999L20.64 9.77999C20.91 10.04 21.1 10.29 21.2 10.52C21.3 10.76 21.37 11.04 21.4 11.36L21.6 13.73C21.63 14.04 21.56 14.29 21.39 14.48C21.23 14.67 21 14.78 20.7 14.8C20.42 14.82 20.19 14.75 20.01 14.59C19.82 14.43 19.71 14.19 19.68 13.85L19.45 11.23L18.52 10.44C18.43 10.36 18.34 10.34 18.24 10.38C18.14 10.41 18.1 10.49 18.11 10.61L18.29 12.95C18.33 13.51 18.25 14 18.04 14.42C17.84 14.84 17.59 15.22 17.3 15.57L15.25 18.07C15.15 18.19 15.07 18.28 15.04 18.35C15 18.42 14.97 18.49 14.93 18.58L12.74 22.83C12.62 23.08 12.46 23.25 12.28 23.34C12.1 23.43 11.91 23.48 11.72 23.48C11.46 23.48 11.24 23.39 11.03 23.21C10.83 23.03 10.73 22.78 10.73 22.46C10.73 22.33 10.75 22.21 10.79 22.1C10.83 21.98 10.88 21.86 10.95 21.73H10.96V21.74ZM8.29 10.98C8.49 10.81 8.75 10.72 9.07 10.72H11.47L13.15 8.94999L13.33 11.44L12.6 12.14C12.42 12.3 12.24 12.42 12.05 12.48C11.86 12.54 11.62 12.57 11.33 12.57H9.07C8.75 12.57 8.49 12.49 8.29 12.32C8.09 12.16 8 11.93 8 11.65C8 11.37 8.1 11.15 8.29 10.98Z" fill="black"/>
<path d="M1.57 0.82V24.17C1.57 24.39 1.5 24.59 1.34 24.75C1.18 24.92 0.99 25 0.78 25C0.57 25 0.38 24.91 0.23 24.75C0.08 24.59 0 24.4 0 24.17V0.82C0 0.59 0.08 0.4 0.23 0.24C0.38 0.08 0.57 0 0.78 0C0.99 0 1.18 0.08 1.34 0.24C1.49 0.4 1.57 0.6 1.57 0.82Z" fill="#636366"/>
</g>
</svg>
