<svg width="20" height="16" viewBox="0 0 20 16" fill="none" xmlns="http://www.w3.org/2000/svg">
<path d="M20 7.99999C20 7.73262 19.8923 7.49692 19.6769 7.29287L12.5363 0.316623C12.4214 0.204046 12.3047 0.123131 12.1863 0.0738786C12.0678 0.0246262 11.944 0 11.8147 0C11.5491 0 11.3265 0.0861917 11.147 0.258575C10.9675 0.430959 10.8777 0.647317 10.8777 0.907651C10.8777 1.0343 10.8993 1.15567 10.9424 1.27177C10.9854 1.38786 11.0501 1.48813 11.1363 1.57256L13.5488 3.97889L17.8244 7.79947L18.0398 7.27177L14.5719 7.06068H0.947763C0.667743 7.06068 0.439777 7.14863 0.263866 7.32453C0.0879554 7.50043 0 7.72558 0 7.99999C0 8.2744 0.0879554 8.49955 0.263866 8.67545C0.439777 8.85135 0.667743 8.9393 0.947763 8.9393H14.5719L18.0398 8.72822L17.8244 8.21108L13.5488 12.021L11.1363 14.4274C11.0501 14.5119 10.9854 14.6121 10.9424 14.7282C10.8993 14.8443 10.8777 14.9657 10.8777 15.0923C10.8777 15.3527 10.9675 15.569 11.147 15.7414C11.3265 15.9138 11.5491 16 11.8147 16C12.0733 16 12.3066 15.9015 12.5148 15.7044L19.6769 8.70712C19.8923 8.50307 20 8.26736 20 7.99999Z" fill="#303031"/>
</svg>
