<svg width="20" height="16" viewBox="0 0 20 16" fill="none" xmlns="http://www.w3.org/2000/svg">
<path d="M0 7.99999C0 8.26736 0.11129 8.50307 0.333871 8.70712L7.48518 15.7044C7.6934 15.9015 7.92675 16 8.18523 16C8.45089 16 8.67527 15.9138 8.85836 15.7414C9.04145 15.569 9.13299 15.3527 9.13299 15.0923C9.13299 14.9657 9.10966 14.8443 9.06298 14.7282C9.01632 14.6121 8.94991 14.5119 8.86374 14.4274L6.45125 12.021L2.18632 8.21108L1.96014 8.72822L5.4281 8.9393H19.0522C19.3322 8.9393 19.5601 8.85135 19.7361 8.67545C19.912 8.49955 20 8.2744 20 7.99999C20 7.72558 19.912 7.50043 19.7361 7.32453C19.5601 7.14863 19.3322 7.06068 19.0522 7.06068H5.4281L1.96014 7.27177L2.18632 7.79947L6.45125 3.97889L8.86374 1.57256C8.94991 1.48813 9.01632 1.38786 9.06298 1.27177C9.10966 1.15567 9.13299 1.0343 9.13299 0.907651C9.13299 0.647317 9.04145 0.430959 8.85836 0.258575C8.67527 0.0861917 8.45089 0 8.18523 0C8.05599 0 7.93213 0.0246262 7.81366 0.0738786C7.69519 0.123131 7.57852 0.204046 7.46364 0.316623L0.333871 7.29287C0.11129 7.49692 0 7.73262 0 7.99999Z" fill="#303031"/>
</svg>
