<svg width="24" height="18" viewBox="0 0 24 18" fill="none" xmlns="http://www.w3.org/2000/svg">
<path d="M2.4672 14.946H21.5328C22.3455 14.946 22.9599 14.7508 23.376 14.3604C23.792 13.97 24 13.3934 24 12.6306V2.30631C24 1.54955 23.792 0.975978 23.376 0.585584C22.9599 0.195195 22.3455 0 21.5328 0H2.4672C1.6544 0 1.04 0.195195 0.623999 0.585584C0.208 0.975978 0 1.54955 0 2.30631V12.6306C0 13.3934 0.208 13.97 0.623999 14.3604C1.04 14.7508 1.6544 14.946 2.4672 14.946ZM2.49599 13.4955C2.1824 13.4955 1.9456 13.4219 1.7856 13.2748C1.6256 13.1277 1.5456 12.9069 1.5456 12.6126V2.33333C1.5456 2.03904 1.6256 1.81832 1.7856 1.67117C1.9456 1.52402 2.1824 1.45045 2.49599 1.45045H21.504C21.824 1.45045 22.0624 1.52402 22.2191 1.67117C22.376 1.81832 22.4544 2.03904 22.4544 2.33333V12.6126C22.4544 12.9069 22.376 13.1277 22.2191 13.2748C22.0624 13.4219 21.824 13.4955 21.504 13.4955H2.49599ZM7.17119 18H16.8287C17.04 18 17.2224 17.9295 17.376 17.7884C17.5296 17.6472 17.6064 17.4745 17.6064 17.2703C17.6064 17.0721 17.5296 16.901 17.376 16.7568C17.2224 16.6126 17.04 16.5406 16.8287 16.5406H7.17119C6.95999 16.5406 6.77759 16.6126 6.62399 16.7568C6.47039 16.901 6.39359 17.0721 6.39359 17.2703C6.39359 17.4745 6.47039 17.6472 6.62399 17.7884C6.77759 17.9295 6.95999 18 7.17119 18ZM8.88959 11.1982C8.88959 11.4445 8.99839 11.6066 9.21599 11.6847C9.43358 11.7628 9.64477 11.7478 9.84955 11.6397L16.512 7.95498C16.7104 7.84086 16.808 7.6802 16.8047 7.47299C16.8015 7.26578 16.7007 7.10813 16.5024 7.00002L9.84955 3.31533C9.64477 3.20722 9.43358 3.1922 9.21599 3.27028C8.99839 3.34835 8.88959 3.51052 8.88959 3.75676V11.1982Z" fill="#5856D6"/>
</svg>
