<svg width="18" height="18" viewBox="0 0 18 18" fill="none" xmlns="http://www.w3.org/2000/svg">
<path fill-rule="evenodd" clip-rule="evenodd" d="M5.02565 2.51621C5.72988 1.02935 7.24406 0 9 0C10.7559 0 12.2701 1.02935 12.9744 2.51621C13.0446 2.51317 13.1151 2.51163 13.186 2.51163C15.8447 2.51163 18 4.66691 18 7.32558C18 9.15118 16.9839 10.7382 15.4884 11.5542L15.4884 14.0668C15.4884 14.819 15.4884 15.4463 15.4215 15.9442C15.3508 16.4698 15.1954 16.9443 14.814 17.3257C14.4327 17.707 13.9582 17.8624 13.4326 17.9331C12.9346 18 12.3074 18 11.5552 18H6.44484C5.69263 18 5.06537 18 4.56741 17.9331C4.04182 17.8624 3.56729 17.707 3.18596 17.3257C2.80464 16.9443 2.64919 16.4698 2.57853 15.9442C2.51158 15.4463 2.5116 14.819 2.51163 14.0668L2.51163 11.5542C1.01613 10.7382 0 9.15118 0 7.32558C0 4.66691 2.15528 2.51163 4.81395 2.51163C4.88485 2.51163 4.95543 2.51316 5.02565 2.51621ZM4.64871 3.77121C2.76031 3.85754 1.25581 5.41586 1.25581 7.32558C1.25581 8.78367 2.13295 10.0383 3.39093 10.5879C3.61963 10.6879 3.76744 10.9137 3.76744 11.1633V13.3953H14.2326L14.2326 11.1633C14.2326 10.9137 14.3804 10.6879 14.6091 10.5879C15.867 10.0383 16.7442 8.78367 16.7442 7.32558C16.7442 5.41586 15.2397 3.85754 13.3513 3.77121C13.3803 3.97528 13.3953 4.18368 13.3953 4.39535V4.81395C13.3953 5.16074 13.1142 5.44186 12.7674 5.44186C12.4207 5.44186 12.1395 5.16074 12.1395 4.81395V4.39535C12.1395 4.04133 12.0812 3.70224 11.9741 3.38639C11.5536 2.14662 10.38 1.25581 9 1.25581C7.61996 1.25581 6.44635 2.14662 6.02592 3.38639C5.91881 3.70224 5.86047 4.04133 5.86047 4.39535V4.81395C5.86047 5.16074 5.57934 5.44186 5.23256 5.44186C4.88577 5.44186 4.60465 5.16074 4.60465 4.81395V4.39535C4.60465 4.18368 4.61966 3.97528 4.64871 3.77121ZM14.231 14.6512H3.76896C3.7725 15.1279 3.78426 15.4876 3.82315 15.7769C3.87509 16.1632 3.96486 16.3286 4.07396 16.4377C4.18306 16.5468 4.34841 16.6365 4.73475 16.6885C5.13915 16.7429 5.68129 16.7442 6.48837 16.7442H11.5116C12.3187 16.7442 12.8609 16.7429 13.2653 16.6885C13.6516 16.6365 13.8169 16.5468 13.926 16.4377C14.0351 16.3286 14.1249 16.1632 14.1769 15.7769C14.2157 15.4876 14.2275 15.1279 14.231 14.6512Z" fill="#AF52DE"/>
</svg>
