<svg width="22" height="25" viewBox="0 0 22 25" fill="none" xmlns="http://www.w3.org/2000/svg">
<g clip-path="url(#clip0_21_111)">
<path d="M11.88 15.97L13.6 18.02C13.57 18.15 13.53 18.28 13.49 18.41C13.45 18.54 13.41 18.67 13.36 18.81C13.29 18.99 13.24 19.12 13.19 19.21C13.14 19.3 13.04 19.43 12.88 19.62L9.8 23.15C9.6 23.39 9.33 23.51 8.98 23.51C8.7 23.51 8.47 23.42 8.28 23.25C8.09 23.08 8 22.85 8 22.57C8 22.37 8.04 22.2 8.13 22.06C8.22 21.92 8.33 21.78 8.47 21.63L11.36 18.34L11.87 15.98H11.88V15.97ZM13.83 5.62999C14.17 5.82999 14.56 5.93999 14.98 5.93999C15.4 5.93999 15.79 5.83999 16.14 5.62999C16.49 5.42999 16.77 5.15999 16.98 4.81999C17.19 4.48999 17.29 4.11999 17.29 3.72999C17.29 3.33999 17.19 2.94999 16.98 2.59999C16.77 2.25999 16.5 1.98999 16.14 1.78999C15.79 1.58999 15.4 1.48999 14.98 1.48999C14.56 1.48999 14.17 1.58999 13.83 1.78999C13.49 1.98999 13.21 2.25999 13 2.59999C12.79 2.93999 12.69 3.31999 12.69 3.72999C12.69 4.13999 12.79 4.47999 13 4.81999C13.21 5.14999 13.48 5.41999 13.83 5.62999ZM19.05 21.74L17.03 17.8C16.94 17.63 16.85 17.46 16.75 17.3C16.65 17.14 16.55 16.99 16.45 16.86L15.16 15.1L15.25 14.84C15.43 14.32 15.56 13.87 15.64 13.48C15.72 13.09 15.78 12.64 15.82 12.13L16.03 9.22999C16.06 8.76999 16 8.34999 15.83 7.96999C15.67 7.58999 15.41 7.27999 15.07 7.05999C14.73 6.82999 14.31 6.71999 13.82 6.71999C13.26 6.71999 12.77 6.85999 12.35 7.14999C11.93 7.43999 11.46 7.80999 10.95 8.27999L9.37 9.77999C9.1 10.04 8.91 10.29 8.81 10.52C8.71 10.76 8.64 11.04 8.61 11.36L8.41 13.73C8.38 14.04 8.45 14.29 8.62 14.48C8.78 14.67 9.01 14.78 9.31 14.8C9.59 14.82 9.82 14.75 10 14.59C10.19 14.43 10.3 14.19 10.33 13.85L10.56 11.23L11.49 10.44C11.58 10.36 11.67 10.34 11.77 10.38C11.87 10.41 11.91 10.49 11.9 10.61L11.72 12.95C11.68 13.51 11.76 14 11.97 14.42C12.17 14.84 12.42 15.22 12.71 15.57L14.76 18.07C14.86 18.19 14.94 18.28 14.97 18.35C15.01 18.42 15.04 18.49 15.08 18.58L17.27 22.83C17.39 23.08 17.55 23.25 17.73 23.34C17.91 23.43 18.1 23.48 18.29 23.48C18.55 23.48 18.77 23.39 18.98 23.21C19.18 23.03 19.28 22.78 19.28 22.46C19.28 22.33 19.26 22.21 19.22 22.1C19.18 21.98 19.13 21.86 19.06 21.73H19.05V21.74ZM21.72 10.98C21.52 10.81 21.26 10.72 20.94 10.72H18.54L16.86 8.94999L16.68 11.44L17.41 12.14C17.59 12.3 17.77 12.42 17.96 12.48C18.15 12.54 18.39 12.57 18.68 12.57H20.94C21.26 12.57 21.52 12.49 21.72 12.32C21.92 12.16 22.01 11.93 22.01 11.65C22.01 11.37 21.91 11.15 21.72 10.98Z" fill="#FF3B30"/>
<path d="M1.57 0.82V24.17C1.57 24.39 1.5 24.59 1.34 24.75C1.18 24.92 0.99 25 0.78 25C0.57 25 0.38 24.91 0.23 24.75C0.08 24.59 0 24.4 0 24.17V0.82C0 0.59 0.08 0.4 0.23 0.24C0.38 0.08 0.57 0 0.78 0C0.99 0 1.18 0.08 1.34 0.24C1.49 0.4 1.57 0.6 1.57 0.82Z" fill="#636366"/>
</g>

</svg>
