<svg width="18" height="22" viewBox="0 0 18 22" fill="none" xmlns="http://www.w3.org/2000/svg">
<path d="M6.4847 17.1439H12.7398C12.7968 17.1439 12.8347 17.1201 12.8537 17.0725C12.8727 17.0251 12.8664 16.976 12.8347 16.9253V16.5357L11.5628 15.2718V15.7089H7.37692V15.1101C7.37692 14.616 7.27251 14.1313 7.06369 13.6562C6.85487 13.181 6.59543 12.7169 6.28537 12.2639C5.9753 11.8109 5.66523 11.3659 5.35517 10.9288C5.0451 10.4916 4.78566 10.0623 4.57683 9.64105C4.36802 9.21974 4.26361 8.80317 4.26361 8.39137C4.26361 8.28366 4.26994 8.18388 4.28259 8.09202C4.29525 8.00015 4.3174 7.90987 4.34904 7.82117L2.74492 6.24364C2.70696 6.38935 2.67848 6.54298 2.65949 6.70454C2.64051 6.8661 2.63102 7.0324 2.63102 7.20346C2.63102 8.02708 2.74334 8.75566 2.96798 9.38921C3.19262 10.0228 3.47104 10.5914 3.80326 11.0951C4.13547 11.5987 4.4661 12.0675 4.79515 12.5015C5.1242 12.9355 5.40105 13.3616 5.62569 13.7798C5.85033 14.1979 5.96265 14.635 5.96265 15.0911V16.6212C5.96265 16.7796 6.01011 16.9063 6.10502 17.0013C6.19994 17.0964 6.32649 17.1439 6.4847 17.1439ZM9.92073 1.43499C11.0977 1.43499 12.1244 1.67574 13.0008 2.15724C13.8772 2.63873 14.5607 3.31188 15.051 4.17668C15.5414 5.04147 15.7866 6.05357 15.7866 7.21297C15.7866 7.90353 15.6822 8.52441 15.4735 9.0756C15.2646 9.6268 15.0052 10.1384 14.6951 10.6104C14.3851 11.0824 14.0781 11.537 13.7744 11.9741L14.7521 12.9529C15.0748 12.4777 15.4275 11.9725 15.8104 11.4371C16.1933 10.9018 16.5239 10.292 16.8023 9.60779C17.0808 8.92355 17.22 8.12211 17.22 7.20346C17.22 6.12643 17.0459 5.14601 16.6978 4.2622C16.3498 3.37841 15.8547 2.61815 15.2124 1.98142C14.5701 1.34471 13.8013 0.855294 12.9059 0.513176C12.0105 0.171059 11.0154 0 9.92073 0C8.70578 0 7.61422 0.212239 6.64605 0.636718C5.67789 1.06119 4.87425 1.65673 4.23513 2.42332L5.27923 3.46868C5.79179 2.8288 6.44356 2.32988 7.23455 1.97193C8.02553 1.61397 8.92092 1.43499 9.92073 1.43499ZM9.93022 22C10.582 22 11.1214 21.8606 11.5486 21.5818C11.9757 21.3031 12.2114 20.9356 12.2557 20.4795H7.60473C7.64902 20.9356 7.88316 21.3031 8.30713 21.5818C8.73109 21.8606 9.27212 22 9.93022 22ZM6.85487 19.7097H13.0151C13.2555 19.7097 13.4612 19.6226 13.6321 19.4484C13.8029 19.2742 13.8883 19.0635 13.8883 18.8164C13.8883 18.5693 13.8029 18.3587 13.6321 18.1844C13.4612 18.0103 13.2555 17.9232 13.0151 17.9232H6.85487C6.60809 17.9232 6.39927 18.0103 6.22841 18.1844C6.05756 18.3587 5.97213 18.5693 5.97213 18.8164C5.97213 19.0635 6.05756 19.2742 6.22841 19.4484C6.39927 19.6226 6.60809 19.7097 6.85487 19.7097ZM16.2518 18.1417C16.3973 18.2874 16.5698 18.3587 16.7691 18.3555C16.9684 18.3523 17.1408 18.2811 17.2864 18.1417C17.4256 17.996 17.4968 17.8218 17.4999 17.6191C17.5031 17.4163 17.4319 17.2452 17.2864 17.1058L1.74828 1.53003C1.60274 1.38431 1.42714 1.31304 1.22148 1.3162C1.01583 1.31937 0.843392 1.39064 0.704179 1.53003C0.564966 1.66941 0.496942 1.84363 0.500105 2.05271C0.503269 2.26177 0.571294 2.43283 0.704179 2.56588L16.2518 18.1417Z" fill="#636364"/>
</svg>
