<?xml version="1.0" encoding="UTF-8"?>
<svg id="Ebene_1" xmlns="http://www.w3.org/2000/svg" version="1.1" viewBox="0 0 14 22">
  <!-- Generator: Adobe Illustrator 29.7.1, SVG Export Plug-In . SVG Version: 2.1.1 Build 8)  -->
  <defs>
    <style>
      .st0 {
        fill: #fff;
        opacity: .5;
      }
    </style>
  </defs>
  <path class="st0" d="M4.8,20.5h4.4c0,.5-.3.8-.7,1.1-.4.3-.9.4-1.5.4s-1.2-.1-1.5-.4c-.4-.3-.6-.7-.7-1.1ZM13.5,4.3c-.3-.9-.8-1.6-1.4-2.3-.6-.6-1.3-1.1-2.2-1.5C9,.2,8,0,7,0s-2,.2-2.8.5c-.9.4-1.6.8-2.2,1.5-.6.6-1.1,1.4-1.4,2.3s-.6,1.8-.6,2.9.1,1.5.3,2.2c.2.6.5,1.2.8,1.7.3.5.6,1,1,1.4.3.4.6.9.8,1.3.2.4.3.9.3,1.3v1.5c0,.2,0,.3,0,.4,0,0,.2.1.4.1h6.6c.2,0,.3,0,.4-.1,0,0,.1-.2.1-.4v-1.5c0-.5.1-.9.3-1.3.2-.4.5-.8.8-1.3.3-.4.6-.9,1-1.4.3-.5.6-1.1.8-1.7.2-.6.3-1.4.3-2.2s-.2-2.1-.5-3h0ZM9.9,17.9H4c-.2,0-.4,0-.6.3-.2.2-.2.4-.2.6s0,.5.2.6c.2.2.4.3.6.3h5.9c.2,0,.4,0,.6-.3.2-.2.2-.4.2-.6s0-.5-.2-.6c-.2-.2-.4-.3-.6-.3Z"/>
</svg>