<svg width="14" height="22" viewBox="0 0 14 22" fill="none" xmlns="http://www.w3.org/2000/svg">
<path d="M3.6981 17.1439H10.2928C10.4507 17.1439 10.5751 17.0964 10.6662 17.0013C10.7573 16.9063 10.8028 16.7796 10.8028 16.6212V15.1007C10.8028 14.6445 10.9106 14.2074 11.1262 13.7892C11.3418 13.3711 11.6074 12.945 11.9232 12.511C12.239 12.077 12.5562 11.6082 12.875 11.1045C13.1938 10.6009 13.461 10.0323 13.6766 9.39871C13.8922 8.76516 14 8.03658 14 7.21297C14 6.13593 13.833 5.15393 13.499 4.26696C13.165 3.37999 12.6898 2.61973 12.0735 1.98618C11.4571 1.35263 10.7193 0.86321 9.8601 0.517927C9.00085 0.172642 8.04596 0 6.99543 0C5.95097 0 4.99912 0.172642 4.13988 0.517927C3.28063 0.86321 2.54283 1.35263 1.92648 1.98618C1.31013 2.61973 0.834959 3.37999 0.500974 4.26696C0.166991 5.15393 0 6.13593 0 7.21297C0 8.03658 0.107786 8.76516 0.323357 9.39871C0.538927 10.0323 0.806112 10.6009 1.12491 11.1045C1.44372 11.6082 1.761 12.077 2.07677 12.511C2.39254 12.945 2.6582 13.3711 2.87377 13.7892C3.08934 14.2074 3.19713 14.6445 3.19713 15.1007V16.6212C3.19713 16.7796 3.24267 16.9063 3.33376 17.0013C3.42484 17.0964 3.54629 17.1439 3.6981 17.1439ZM4.55431 16.4882C4.55431 16.3361 4.55431 16.184 4.55431 16.032C4.55431 15.8799 4.55431 15.7279 4.55431 15.5759C4.55431 15.4238 4.55431 15.2717 4.55431 15.1197C4.55431 14.5621 4.44805 14.0458 4.23552 13.5706C4.02298 13.0955 3.75883 12.6298 3.44307 12.1737C3.1273 11.7175 2.81153 11.2455 2.49576 10.7577C2.18 10.2698 1.91433 9.73923 1.69876 9.16589C1.48319 8.59252 1.3754 7.94472 1.3754 7.22247C1.3754 6.06308 1.60919 5.0494 2.07677 4.18143C2.54435 3.31346 3.20017 2.63873 4.04423 2.15724C4.8883 1.67574 5.87203 1.43499 6.99543 1.43499C8.1249 1.43499 9.11014 1.67574 9.95114 2.15724C10.7922 2.63873 11.448 3.31346 11.9186 4.18143C12.3893 5.0494 12.6246 6.06308 12.6246 7.22247C12.6246 7.94472 12.5168 8.59252 12.3012 9.16589C12.0856 9.73923 11.82 10.2698 11.5042 10.7577C11.1885 11.2455 10.8727 11.7175 10.5569 12.1737C10.2411 12.6298 9.97697 13.0955 9.7645 13.5706C9.55196 14.0458 9.44569 14.5621 9.44569 15.1197C9.44569 15.3478 9.44569 15.5758 9.44569 15.8039C9.44569 16.032 9.44569 16.2601 9.44569 16.4882L10.1743 15.7089H3.82562L4.55431 16.4882ZM7.00454 22C7.63 22 8.14767 21.8606 8.55756 21.5818C8.96744 21.3031 9.19364 20.9356 9.23615 20.4795H4.77293C4.81543 20.9356 5.04011 21.3031 5.44696 21.5818C5.85381 21.8606 6.37301 22 7.00454 22ZM4.05334 19.7097H9.96485C10.1956 19.7097 10.393 19.6226 10.5569 19.4484C10.7209 19.2742 10.8028 19.0635 10.8028 18.8164C10.8028 18.5693 10.7209 18.3587 10.5569 18.1844C10.393 18.0103 10.1956 17.9232 9.96485 17.9232H4.05334C3.81651 17.9232 3.61612 18.0103 3.45217 18.1844C3.28822 18.3587 3.20624 18.5693 3.20624 18.8164C3.20624 19.0635 3.28822 19.2742 3.45217 19.4484C3.61612 19.6226 3.81651 19.7097 4.05334 19.7097Z" fill="#636364"/>
</svg>
