<?xml version="1.0" encoding="UTF-8"?>
<svg id="Ebene_1" xmlns="http://www.w3.org/2000/svg" version="1.1" viewBox="0 0 14 19">
  <!-- Generator: Adobe Illustrator 29.7.1, SVG Export Plug-In . SVG Version: 2.1.1 Build 8)  -->
  <defs>
    <style>
      .st0 {
        fill: #fff;
        isolation: isolate;
        opacity: .5;
      }
    </style>
  </defs>
  <path class="st0" d="M13.4,8.4c-.3-.3-.6-.4-1-.5v-2.3c0-.9-.1-1.6-.4-2.3-.3-.6-.7-1.2-1.2-1.6-.5-.4-1.1-.7-1.7-1-.6-.2-1.3-.3-1.9-.3s-1.3,0-1.9.3c-.6.2-1.2.5-1.7,1s-.9,1-1.2,1.6c-.3.6-.4,1.4-.4,2.3v2.3c-.6,0-1,.2-1.4.5-.4.3-.6.9-.6,1.6v6.3c0,.8.2,1.3.6,1.7s1,.5,1.7.5h9.4c.8,0,1.3-.2,1.7-.5.4-.4.6-.9.6-1.7v-6.3c0-.7-.2-1.3-.6-1.6ZM3.5,5.4c0-.8.2-1.4.5-1.9s.8-.9,1.3-1.2c.5-.3,1.1-.4,1.8-.4s1.2,0,1.8.4c.5.3,1,.7,1.3,1.2s.5,1.2.5,1.9v2.5H3.5v-2.5Z"/>
</svg>