<?xml version="1.0" encoding="UTF-8"?>
<svg id="Ebene_1" xmlns="http://www.w3.org/2000/svg" version="1.1" viewBox="0 0 18 19">
  <!-- Generator: Adobe Illustrator 29.7.1, SVG Export Plug-In . SVG Version: 2.1.1 Build 8)  -->
  <defs>
    <style>
      .st0 {
        fill: #00c3d0;
      }
    </style>
  </defs>
  <path class="st0" d="M17.5,3.3c-.2-.6-.6-1.2-1-1.6-.4-.4-.9-.7-1.4-1-.5-.2-1.1-.3-1.7-.3s-1.1,0-1.7.3c-.5.2-1,.5-1.4,1-.4.4-.8,1-1,1.6-.2.6-.4,1.4-.4,2.3v2.3H2c-.7,0-1.1.2-1.5.5-.3.4-.5.9-.5,1.6v6.3c0,.8.2,1.3.5,1.7s.8.5,1.5.5h8c.7,0,1.1-.2,1.5-.5s.5-.9.5-1.7v-6.3c0-.7-.2-1.3-.5-1.6-.2-.2-.6-.4-1-.5v-2.5c0-.8,0-1.4.4-1.9.3-.5.7-.9,1.1-1.2.5-.3,1-.4,1.5-.4s1,0,1.5.4.8.7,1.1,1.2c.3.5.4,1.2.4,1.9v2c0,.3,0,.5.2.6,0,0,.3.2.5.2s.4,0,.5-.2c0,0,.2-.3.2-.6v-1.8c0-.9-.1-1.6-.4-2.3Z"/>
</svg>