<svg width="18" height="16" viewBox="0 0 18 16" fill="none" xmlns="http://www.w3.org/2000/svg">
<path fill-rule="evenodd" clip-rule="evenodd" d="M3.66703 4.75377e-07H14.3334C14.8196 -1.10918e-05 15.2298 -2.08765e-05 15.5658 0.0271053C15.9174 0.055495 16.2546 0.117309 16.5759 0.279059C17.0637 0.524589 17.4634 0.917484 17.7146 1.40445C17.8803 1.72588 17.9435 2.06341 17.9725 2.4131C18 2.74623 18 3.15224 18 3.6306V12.3591C18 12.7115 18 13.0227 17.9897 13.2921C18.0088 13.4086 18.0012 13.528 17.9677 13.6407C17.9367 13.9725 17.8709 14.2917 17.7146 14.5948C17.4638 15.081 17.0645 15.4752 16.5759 15.7211C16.2548 15.8828 15.918 15.9445 15.5667 15.9729C15.2312 16 14.8217 16 14.3365 16H3.66404C3.17877 16 2.76908 16 2.43338 15.9729C2.0821 15.9446 1.74498 15.8828 1.42379 15.7211C0.934731 15.475 0.536147 15.0805 0.28564 14.5948C0.000923723 14.0428 0.000562495 13.5069 1.29336e-05 12.6908L5.49477e-07 3.6336C-1.22638e-05 3.15424 -2.3054e-05 2.74758 0.0275557 2.41401C0.0565021 2.0639 0.119741 1.7261 0.285639 1.40445C0.536576 0.917916 0.935571 0.524809 1.42379 0.27906C1.7452 0.117271 2.0826 0.0554819 2.4343 0.0271027C2.77045 -2.08132e-05 3.18078 -1.10302e-05 3.66703 4.75377e-07ZM2.55795 1.57051C2.29963 1.59135 2.18524 1.62801 2.1155 1.66311C1.91558 1.76374 1.75551 1.92294 1.65582 2.11622C1.62242 2.18098 1.58601 2.28951 1.56513 2.54205C1.54348 2.80394 1.54286 3.14587 1.54286 3.66469V10.537L4.54264 6.99088C4.54681 6.98596 4.55103 6.98109 4.55532 6.97627L4.56903 6.96047C4.74613 6.75631 4.91017 6.56721 5.06003 6.42202C5.22063 6.2664 5.42124 6.1037 5.68778 6.01035C6.05786 5.88073 6.46125 5.88386 6.82889 6.01833C7.09412 6.11534 7.29251 6.28069 7.4512 6.43873C7.59941 6.58633 7.76126 6.77823 7.93616 6.98561L10.3962 9.90191C10.5811 10.1212 10.6895 10.2486 10.7763 10.3355C10.8129 10.3721 10.8349 10.3902 10.845 10.3979C10.8684 10.4048 10.8949 10.4061 10.9221 10.4002C10.9327 10.3937 10.9569 10.3774 10.9983 10.3429C11.0935 10.2634 11.2141 10.1452 11.42 9.94184L11.8935 9.47409C12.0768 9.29299 12.2472 9.12456 12.4014 8.99623C12.5672 8.85811 12.7704 8.71709 13.0312 8.64275C13.3967 8.53854 13.7857 8.56122 14.1351 8.70379C14.3862 8.8062 14.5726 8.96843 14.7225 9.12407C14.8621 9.26909 15.0134 9.45596 15.1761 9.65689L16.4571 11.2389V3.66173C16.4571 3.14389 16.4565 2.80262 16.4349 2.5412C16.414 2.28913 16.3777 2.18083 16.3444 2.11622C16.2449 1.92337 16.0846 1.76396 15.8842 1.66311C15.8144 1.62797 15.7001 1.59134 15.442 1.57051C15.1753 1.54897 14.8276 1.54839 14.303 1.54839H3.69732C3.17275 1.54839 2.82488 1.54897 2.55795 1.57051ZM16.4138 13.6404L13.9937 10.652C13.8088 10.4235 13.7001 10.2905 13.6129 10.2C13.5754 10.161 13.5529 10.142 13.5428 10.1341C13.5169 10.1257 13.4897 10.1243 13.4643 10.1294C13.4534 10.1362 13.4286 10.1528 13.3865 10.1879C13.2893 10.2688 13.1663 10.3894 12.9568 10.5963L12.4829 11.0645C12.3033 11.242 12.1358 11.4074 11.9843 11.5338C11.8207 11.6702 11.6206 11.8094 11.3639 11.8843C11.0073 11.9882 10.6234 11.9738 10.2724 11.8363C10.0236 11.7388 9.83707 11.5821 9.68714 11.4321C9.54828 11.2933 9.39744 11.1144 9.23626 10.9233L6.7764 8.00715C6.57701 7.77078 6.45896 7.63194 6.36444 7.53781C6.32357 7.4971 6.29908 7.47732 6.28807 7.46912C6.26203 7.46203 6.23461 7.46185 6.2088 7.46844C6.19765 7.47652 6.17294 7.49596 6.13166 7.53595C6.03641 7.62825 5.91738 7.76431 5.71698 7.99528L1.54411 12.928C1.55043 13.6177 1.58087 13.7377 1.65582 13.8831C1.75594 14.0772 1.91642 14.2369 2.1155 14.3371C2.18508 14.3721 2.29925 14.4087 2.55709 14.4295C2.82354 14.451 3.17075 14.4516 3.69432 14.4516H14.3061C14.8297 14.4516 15.1767 14.451 15.4429 14.4295C15.7005 14.4087 15.8145 14.3721 15.8842 14.3371C16.0837 14.2367 16.2445 14.0767 16.3444 13.8831C16.3687 13.8359 16.3938 13.7674 16.4138 13.6404ZM10.0571 5.29032C10.0571 4.35246 10.8234 3.6129 11.7429 3.6129C12.6624 3.6129 13.4286 4.35246 13.4286 5.29032C13.4286 6.22818 12.6624 6.96774 11.7429 6.96774C10.8234 6.96774 10.0571 6.22819 10.0571 5.29032ZM11.7429 5.16129C11.6525 5.16129 11.6 5.23051 11.6 5.29032C11.6 5.35014 11.6525 5.41936 11.7429 5.41936C11.8333 5.41936 11.8857 5.35014 11.8857 5.29032C11.8857 5.23051 11.8333 5.16129 11.7429 5.16129Z" fill="black" />
<path d="M11.6 5.29032C11.6 5.23051 11.6525 5.16129 11.7429 5.16129C11.8333 5.16129 11.8857 5.23051 11.8857 5.29032C11.8857 5.35014 11.8333 5.41936 11.7429 5.41936C11.6525 5.41936 11.6 5.35014 11.6 5.29032Z" fill="black" />
</svg>
