<svg width="16" height="20" viewBox="0 0 16 20" fill="none" xmlns="http://www.w3.org/2000/svg">
<path d="M7.99998 20C8.077 20 8.17327 19.9835 8.28879 19.9505C8.40431 19.9175 8.52305 19.868 8.64499 19.802C10.0184 19.01 11.1753 18.3086 12.1155 17.698C13.0557 17.0875 13.8114 16.4951 14.3826 15.9208C14.9538 15.3466 15.3662 14.7245 15.6197 14.0545C15.8732 13.3845 16 12.5974 16 11.6931V4.11882C16 3.59737 15.8941 3.22443 15.6823 3C15.4705 2.77558 15.1592 2.57426 14.7484 2.39605C14.5238 2.29704 14.2126 2.16997 13.8147 2.01485C13.4167 1.85974 12.9787 1.69142 12.5006 1.50991C12.0224 1.32839 11.5427 1.14852 11.0613 0.9703C10.58 0.792083 10.1404 0.630366 9.74246 0.48515C9.34454 0.339935 9.03327 0.227723 8.80865 0.148515C8.68029 0.108911 8.54711 0.0742577 8.40913 0.0445542C8.27114 0.0148514 8.13476 0 7.99998 0C7.86521 0 7.73043 0.0165016 7.59566 0.0495049C7.46088 0.0825082 7.32931 0.115512 7.20095 0.148515C6.9699 0.214522 6.65542 0.318483 6.25751 0.460397C5.8596 0.602311 5.42157 0.764029 4.94343 0.945551C4.4653 1.12707 3.98555 1.31023 3.50421 1.49506C3.02286 1.67987 2.58323 1.85149 2.18532 2.00991C1.7874 2.16832 1.47613 2.29704 1.2515 2.39605C0.84717 2.56767 0.537504 2.76734 0.322502 2.99506C0.107501 3.22278 0 3.59737 0 4.11882V11.6931C0 12.5974 0.128359 13.3829 0.385077 14.0495C0.641796 14.7162 1.05575 15.3366 1.62695 15.9109C2.19815 16.4851 2.95387 17.0792 3.8941 17.6932C4.83433 18.307 5.98796 19.01 7.35498 19.802C7.47692 19.868 7.59565 19.9175 7.71118 19.9505C7.8267 19.9835 7.92297 20 7.99998 20ZM7.99998 18.208C7.92297 18.208 7.83954 18.1898 7.74969 18.1536C7.65983 18.1172 7.54431 18.0561 7.40312 17.9703C6.29281 17.2773 5.3606 16.6816 4.60649 16.1832C3.85238 15.6849 3.2507 15.2096 2.80144 14.7574C2.35218 14.3053 2.02807 13.8119 1.82912 13.2773C1.63016 12.7426 1.53068 12.0925 1.53068 11.3268V4.42575C1.53068 4.26073 1.55154 4.13697 1.59326 4.05446C1.63498 3.97195 1.72322 3.9043 1.858 3.8515C2.14681 3.73268 2.48375 3.60066 2.86883 3.45545C3.2539 3.31024 3.66144 3.15842 4.09145 3C4.52145 2.84159 4.95146 2.68483 5.38145 2.52971C5.81146 2.37459 6.219 2.22443 6.60408 2.07921C6.98916 1.934 7.3261 1.80199 7.61491 1.68317C7.69193 1.65017 7.76252 1.62707 7.8267 1.61387C7.89088 1.60066 7.94864 1.59406 7.99998 1.59406C8.05133 1.59406 8.10909 1.60066 8.17327 1.61387C8.23745 1.62707 8.30805 1.65017 8.38506 1.68317C8.67387 1.80199 9.01081 1.93565 9.39589 2.08416C9.78098 2.23268 10.1869 2.3878 10.6137 2.54951C11.0405 2.71122 11.4673 2.87129 11.8941 3.02971C12.3208 3.18812 12.7284 3.33829 13.1167 3.48021C13.505 3.62212 13.85 3.74589 14.1516 3.8515C14.28 3.8977 14.365 3.96371 14.4068 4.04951C14.4484 4.13532 14.4693 4.26073 14.4693 4.42575V11.3268C14.4693 12.0925 14.3714 12.7426 14.1757 13.2773C13.9799 13.8119 13.6558 14.3037 13.2034 14.7525C12.7509 15.2014 12.1476 15.6766 11.3935 16.1782C10.6394 16.6799 9.70719 17.2773 8.59685 17.9703C8.45566 18.0561 8.34014 18.1172 8.25028 18.1536C8.16043 18.1898 8.077 18.208 7.99998 18.208ZM6.95065 14.2178C7.27797 14.2178 7.53789 14.066 7.73043 13.7624L12.13 6.63368C12.1877 6.54127 12.2407 6.44061 12.2888 6.3317C12.3369 6.22278 12.361 6.11222 12.361 6.00002C12.361 5.78219 12.2808 5.60727 12.1203 5.47526C11.9599 5.34325 11.7802 5.27724 11.5812 5.27724C11.3116 5.27724 11.087 5.42576 10.9074 5.72278L6.91214 12.3168L5.01563 9.79212C4.90011 9.63369 4.78619 9.52643 4.67388 9.47032C4.56156 9.41421 4.43801 9.38616 4.30324 9.38616C4.09786 9.38616 3.92297 9.46372 3.77857 9.61885C3.63417 9.77397 3.56197 9.96042 3.56197 10.1782C3.56197 10.3829 3.63577 10.5875 3.78339 10.7921L6.13236 13.7624C6.2543 13.9208 6.38106 14.0364 6.51263 14.1089C6.64419 14.1815 6.7902 14.2178 6.95065 14.2178Z" fill="white"/>
</svg>
