<svg width="24" height="16" viewBox="0 0 24 16" fill="none" xmlns="http://www.w3.org/2000/svg">
<path d="M8.09989 14.7549H10.5626C9.92584 14.4738 9.40302 14.0228 8.99414 13.402C8.58525 12.7811 8.3808 12.085 8.3808 11.3137C8.3808 10.6209 8.54467 9.98858 8.87241 9.41666C9.20015 8.84477 9.6387 8.38726 10.1881 8.04412C10.7374 7.70098 11.343 7.52941 12.0047 7.52941C12.6601 7.52941 13.2626 7.70098 13.8119 8.04412C14.3613 8.38726 14.7999 8.84477 15.1276 9.41666C15.4554 9.98858 15.6192 10.6209 15.6192 11.3137C15.6192 12.085 15.4148 12.7811 15.0058 13.402C14.597 14.0228 14.0742 14.4738 13.4374 14.7549H15.9001C16.2809 14.2909 16.579 13.7647 16.7943 13.1765C17.0098 12.5882 17.1175 11.9673 17.1175 11.3137C17.1175 10.5817 16.9848 9.89217 16.7194 9.24509C16.4542 8.59804 16.0843 8.02615 15.6098 7.52941C15.1354 7.03268 14.5891 6.64379 13.9711 6.36274C13.3531 6.0817 12.6976 5.94118 12.0047 5.94118C11.3055 5.94118 10.6469 6.0817 10.0289 6.36274C9.41085 6.64379 8.86461 7.03268 8.39017 7.52941C7.91572 8.02615 7.54584 8.59804 7.28053 9.24509C7.01521 9.89217 6.88255 10.5817 6.88255 11.3137C6.88255 11.9673 6.99024 12.5882 7.20562 13.1765C7.42099 13.7647 7.71908 14.2909 8.09989 14.7549ZM2.03199 11.8627H4.33554C4.579 11.8627 4.78033 11.7843 4.93953 11.6274C5.09871 11.4706 5.17831 11.2843 5.17831 11.0686C5.17206 10.8464 5.0909 10.6569 4.93484 10.5C4.77877 10.3431 4.579 10.2647 4.33554 10.2647H2.03199C1.78853 10.2647 1.58876 10.3431 1.4327 10.5C1.27663 10.6569 1.1986 10.8464 1.1986 11.0686C1.1986 11.2843 1.27663 11.4706 1.4327 11.6274C1.58876 11.7843 1.78853 11.8627 2.03199 11.8627ZM7.17284 6.2647C7.31643 6.10784 7.38666 5.91503 7.38354 5.68627C7.38041 5.45752 7.29145 5.25164 7.11666 5.06863L5.48732 3.36275C5.31253 3.18628 5.119 3.09641 4.90675 3.09313C4.6945 3.08987 4.51346 3.16667 4.36363 3.32353C4.21381 3.47386 4.14046 3.66177 4.14358 3.88725C4.1467 4.11274 4.23566 4.31699 4.41046 4.5L6.0398 6.20588C6.20835 6.38235 6.40343 6.47386 6.62505 6.48039C6.84666 6.48693 7.02926 6.41503 7.17284 6.2647ZM16.8271 6.2647C16.977 6.41503 17.1611 6.48693 17.3796 6.48039C17.5981 6.47386 17.7917 6.38235 17.9602 6.20588L19.5896 4.5C19.7643 4.31699 19.8533 4.11438 19.8564 3.89215C19.8595 3.66993 19.7862 3.48039 19.6363 3.32353C19.4928 3.16667 19.3133 3.08987 19.0979 3.09313C18.8826 3.09641 18.6875 3.18628 18.5126 3.36275L16.8833 5.06863C16.7085 5.25164 16.618 5.45752 16.6118 5.68627C16.6056 5.91503 16.6773 6.10784 16.8271 6.2647ZM19.6644 11.8627H21.968C22.2115 11.8627 22.4112 11.7843 22.5673 11.6274C22.7234 11.4706 22.8014 11.2843 22.8014 11.0686C22.8014 10.8464 22.7234 10.6569 22.5673 10.5C22.4112 10.3431 22.2115 10.2647 21.968 10.2647H19.6644C19.4272 10.2647 19.2274 10.3431 19.0651 10.5C18.9028 10.6569 18.8217 10.8464 18.8217 11.0686C18.8279 11.2843 18.9107 11.4706 19.0698 11.6274C19.229 11.7843 19.4272 11.8627 19.6644 11.8627ZM12.0047 4.16667C12.2107 4.16667 12.3886 4.08333 12.5385 3.91667C12.6882 3.75 12.7631 3.53921 12.7631 3.28431V0.872549C12.7631 0.617647 12.6882 0.408497 12.5385 0.245098C12.3886 0.0816995 12.2107 0 12.0047 0C11.7924 0 11.6114 0.0816995 11.4615 0.245098C11.3118 0.408497 11.2369 0.617647 11.2369 0.872549V3.28431C11.2369 3.53921 11.3118 3.75163 11.4615 3.92157C11.6114 4.09151 11.7924 4.17321 12.0047 4.16667ZM0.81467 16H23.1853C23.4038 16 23.5942 15.9232 23.7565 15.7696C23.9188 15.616 24 15.4313 24 15.2156C24 15 23.9188 14.8137 23.7565 14.6569C23.5942 14.5 23.4038 14.4215 23.1853 14.4215H0.81467C0.596176 14.4215 0.405774 14.5 0.243464 14.6569C0.0811548 14.8137 0 15 0 15.2156C0 15.4313 0.0811548 15.616 0.243464 15.7696C0.405774 15.9232 0.596176 16 0.81467 16Z" fill="#FF9500"/>
</svg>
