<?xml version="1.0" encoding="UTF-8"?>
<svg id="Ebene_1" xmlns="http://www.w3.org/2000/svg" version="1.1" viewBox="0 0 20 20">
  <!-- Generator: Adobe Illustrator 29.7.1, SVG Export Plug-In . SVG Version: 2.1.1 Build 8)  -->
  <defs>
    <style>
      .st0 {
        fill: #fff;
      }
    </style>
  </defs>
  <path class="st0" d="M.1,15.3v3c0,1.1.6,1.7,1.8,1.7h3.1c-1.1-.5-2-1.2-2.8-1.9-.8-.8-1.5-1.7-2.1-2.7h0ZM19.9,15.3c-.6,1.1-1.3,2-2.1,2.7-.8.8-1.7,1.4-2.8,1.9h3.1c1.2,0,1.8-.6,1.8-1.7v-3h0ZM6.6,7.5l2.9,2.9c.1.1.3.2.5.2s.3,0,.5-.2l4.5-4.4c.1,0,.2-.3.2-.5s0-.3-.2-.5c-.1,0-.3-.2-.5-.2s-.3,0-.5.2l-4,4-2.4-2.4c0,0-.3-.2-.5-.2s-.3,0-.5.2-.2.3-.2.5,0,.3.2.5h0ZM10,19.9c1.4,0,2.7-.3,3.9-.8s2.3-1.2,3.2-2.2c.9-.9,1.6-2,2.2-3.2.5-1.2.8-2.5.8-3.8s-.3-2.6-.8-3.8c-.5-1.2-1.2-2.3-2.2-3.2-.9-.9-2-1.6-3.2-2.2C12.7.2,11.4-.1,10-.1s-2.7.3-3.9.8-2.3,1.2-3.2,2.2c-.9.9-1.6,2-2.2,3.2C.2,7.3-.1,8.6-.1,9.9s.3,2.6.8,3.8,1.2,2.3,2.2,3.2c.9.9,2,1.6,3.2,2.2,1.2.5,2.5.8,3.9.8ZM10,18.2c-1.2,0-2.2-.2-3.2-.6s-1.9-1-2.7-1.8c-.8-.8-1.4-1.6-1.8-2.6-.4-1-.6-2.1-.6-3.2s.2-2.2.6-3.2c.4-1,1-1.9,1.8-2.6.8-.8,1.6-1.4,2.6-1.8,1-.4,2.1-.6,3.2-.6s2.2.2,3.2.6,1.9,1,2.7,1.8c.8.8,1.4,1.6,1.8,2.6s.6,2.1.6,3.2-.2,2.2-.6,3.2-1,1.9-1.8,2.6c-.8.8-1.6,1.3-2.7,1.8-1,.4-2.1.6-3.2.6h0Z"/>
</svg>