<svg width="18" height="21" viewBox="0 0 18 21" fill="none" xmlns="http://www.w3.org/2000/svg">
<path d="M1.44038 16.69H16.5596C17.0112 16.69 17.3641 16.5855 17.6185 16.3766C17.8728 16.1675 18 15.8888 18 15.5404C18 15.2237 17.9078 14.9165 17.7234 14.6188C17.539 14.3211 17.3084 14.0297 17.0318 13.7447C16.7552 13.4596 16.4801 13.1746 16.2067 12.8896C15.9968 12.6742 15.8331 12.3923 15.7155 12.0439C15.5978 11.6956 15.5104 11.325 15.4531 10.9324C15.3959 10.5396 15.3546 10.1596 15.3292 9.79218C15.3101 8.57602 15.1781 7.49289 14.9333 6.54277C14.6884 5.59264 14.3084 4.79454 13.7934 4.14846C13.2783 3.50238 12.5978 3.02732 11.752 2.72329C11.5739 2.10253 11.2464 1.5768 10.7695 1.14608C10.2926 0.715361 9.70115 0.5 8.99524 0.5C8.29572 0.5 7.70749 0.715361 7.23053 1.14608C6.75359 1.5768 6.42608 2.10253 6.24802 2.72329C5.40224 3.02732 4.7202 3.50238 4.20192 4.14846C3.68363 4.79454 3.30366 5.59264 3.06201 6.54277C2.82036 7.49289 2.68999 8.57602 2.67092 9.79218C2.64547 10.1596 2.60414 10.5396 2.5469 10.9324C2.48967 11.325 2.40223 11.6956 2.28459 12.0439C2.16693 12.3923 2.00318 12.6742 1.79333 12.8896C1.51988 13.1746 1.24484 13.4596 0.968205 13.7447C0.691575 14.0297 0.46105 14.3211 0.27663 14.6188C0.09221 14.9165 0 15.2237 0 15.5404C0 15.8888 0.127186 16.1675 0.381559 16.3766C0.635931 16.5855 0.988873 16.69 1.44038 16.69ZM8.99524 20.5C9.53581 20.5 10.0191 20.3828 10.4452 20.1485C10.8713 19.9141 11.2131 19.6069 11.4706 19.2268C11.7282 18.8468 11.8792 18.4351 11.9237 17.9917H6.07632C6.11448 18.4351 6.26393 18.8468 6.52466 19.2268C6.78539 19.6069 7.12879 19.9141 7.55487 20.1485C7.98094 20.3828 8.46106 20.5 8.99524 20.5Z" fill="#fb2c36"/>
</svg>
