<?xml version="1.0" encoding="UTF-8"?>
<svg id="Ebene_1" xmlns="http://www.w3.org/2000/svg" version="1.1" viewBox="0 0 18 21">
  <!-- Generator: Adobe Illustrator 29.7.1, SVG Export Plug-In . SVG Version: 2.1.1 Build 8)  -->
  <defs>
    <style>
      .st0 {
        fill: #fff;
      }
    </style>
  </defs>
  <path class="st0" d="M1.4,16.7h15.1c.5,0,.8-.1,1.1-.3.3-.2.4-.5.4-.8s0-.6-.3-.9-.4-.6-.7-.9c-.3-.3-.6-.6-.8-.9-.2-.2-.4-.5-.5-.8s-.2-.7-.3-1.1c0-.4,0-.8-.1-1.1,0-1.2-.2-2.3-.4-3.2-.2-1-.6-1.7-1.1-2.4-.5-.6-1.2-1.1-2-1.4-.2-.6-.5-1.1-1-1.6-.5-.4-1.1-.6-1.8-.6s-1.3.2-1.8.6c-.5.4-.8,1-1,1.6-.8.3-1.5.8-2,1.4-.5.6-.9,1.4-1.1,2.4-.2,1-.4,2-.4,3.2s0,.7,0,1.1c0,.4,0,.8-.3,1.1,0,.3-.3.6-.5.8-.3.3-.5.6-.8.9-.3.3-.5.6-.7.9C0,15,0,15.3,0,15.6s.1.6.4.8c.3.2.6.3,1.1.3h-.1ZM9,20.5c.5,0,1-.1,1.4-.4.4-.2.8-.5,1-.9.3-.4.4-.8.5-1.2h-5.8c0,.4.2.9.4,1.2.3.4.6.7,1,.9.4.2.9.4,1.4.4h.1Z"/>
</svg>