<?xml version="1.0" encoding="UTF-8"?>
<svg id="Ebene_1" xmlns="http://www.w3.org/2000/svg" version="1.1" viewBox="0 0 22 22">
  <!-- Generator: Adobe Illustrator 29.7.1, SVG Export Plug-In . SVG Version: 2.1.1 Build 8)  -->
  <defs>
    <style>
      .st0 {
        fill: #fff;
      }
    </style>
  </defs>
  <path class="st0" d="M21.1.9c-.6-.6-1.6-.9-2.8-.9H3.8C2.5,0,1.6.3.9.9c-.6.6-.9,1.5-.9,2.8v14.6c0,1.2.3,2.2.9,2.8.6.6,1.6.9,2.8.9h14.5c1.2,0,2.2-.3,2.8-.9.6-.6.9-1.5.9-2.8V3.7c0-1.2-.3-2.2-.9-2.8h.1ZM20.1,18.2c0,.6-.2,1.1-.5,1.4s-.8.5-1.4.5H3.8c-.6,0-1-.2-1.4-.5-.3-.3-.5-.8-.5-1.4V3.8c0-.6.2-1.1.5-1.4.3-.3.8-.5,1.4-.5h14.4c.6,0,1.1,0,1.4.5.3.3.5.8.5,1.4v14.4ZM17.6,9.4c0,.2,0,.4-.2.5-.1.1-.3.2-.5.2H5.1c-.2,0-.4,0-.5-.2,0-.1-.2-.3-.2-.5s0-.4.2-.5c0-.1.3-.2.5-.2h11.8c.2,0,.4,0,.5.2.1.1.2.3.2.5ZM17.6,5.3c0,.2,0,.4-.2.5-.1,0-.3.2-.5.2H5.1c-.2,0-.4,0-.5-.2,0,0-.2-.3-.2-.5s0-.4.2-.5c0,0,.3-.2.5-.2h11.8c.2,0,.4,0,.5.2s.2.3.2.5ZM17.6,13.5c0,.2,0,.4-.2.5-.1.1-.3.2-.5.2H5.1c-.2,0-.4,0-.5-.2,0-.1-.2-.3-.2-.5s0-.4.2-.5c0-.1.3-.2.5-.2h11.8c.2,0,.4,0,.5.2.1.1.2.3.2.5ZM17.6,17.5c0,.2,0,.4-.2.5-.1.1-.3.2-.5.2H5.1c-.2,0-.4,0-.5-.2,0-.1-.2-.3-.2-.5s0-.4.2-.5c0-.1.3-.2.5-.2h11.8c.2,0,.4,0,.5.2.1.1.2.3.2.5Z"/>
</svg>