<?xml version="1.0" encoding="UTF-8"?>
<svg id="Ebene_1" xmlns="http://www.w3.org/2000/svg" version="1.1" viewBox="0 0 20 20">
  <!-- Generator: Adobe Illustrator 29.7.1, SVG Export Plug-In . SVG Version: 2.1.1 Build 8)  -->
  <defs>
    <style>
      .st0 {
        fill: #fff;
      }
    </style>
  </defs>
  <path class="st0" d="M.8,6.5c.6,0,.8-.3.8-.8v-2.4c0-.5.1-.9.4-1.2s.7-.4,1.2-.4h2.5c.6,0,.8-.3.8-.8s-.3-.8-.8-.8h-2.5c-1.1,0-1.9.2-2.4.7-.5.5-.8,1.3-.8,2.4v2.5c0,.6.3.8.8.8ZM19.2,6.5c.6,0,.8-.3.8-.8v-2.5c0-1-.3-1.8-.8-2.4C18.7.3,17.9,0,16.8,0h-2.5C13.7,0,13.5.3,13.5.8s.3.8.8.8h2.5c.5,0,.9.1,1.2.4.3.3.4.7.4,1.2v2.4c0,.6.3.8.8.8h0ZM3.2,20h2.5c.6,0,.8-.3.8-.8s-.3-.8-.8-.8h-2.5c-.5,0-.9-.1-1.2-.4s-.4-.7-.4-1.2v-2.4c0-.6-.3-.8-.8-.8S0,13.9,0,14.4v2.5C0,18,.3,18.7.8,19.3c.5.5,1.3.8,2.4.8h0ZM14.3,20h2.5c1.1,0,1.9-.3,2.4-.8s.8-1.3.8-2.4v-2.5c0-.6-.3-.8-.8-.8s-.8.3-.8.8v2.4c0,.5-.1.9-.4,1.2-.3.3-.7.4-1.2.4h-2.5c-.6,0-.8.3-.8.8s.3.8.8.8h0ZM4.9,15.7h10.3c.2,0,.4,0,.5-.2.1-.1.2-.3.2-.5,0-.3-.1-.7-.4-1.2-.2-.5-.6-1-1.1-1.5s-1.1-.9-1.8-1.2-1.6-.5-2.6-.5-1.8.2-2.6.5c-.7.3-1.3.8-1.8,1.2-.5.5-.8,1-1.1,1.5-.2.5-.4.9-.4,1.2s0,.4.2.5c0,.1.3.2.5.2h0ZM10,9.6c.5,0,1-.1,1.5-.4s.8-.7,1-1.1.4-1,.4-1.6-.1-1.1-.4-1.5-.6-.8-1-1.1c-.4-.3-.9-.4-1.5-.4s-1,0-1.5.4c-.4.3-.8.7-1,1.1s-.4,1-.4,1.5,0,1.1.4,1.6.6.8,1,1.1.9.4,1.5.4Z"/>
</svg>