<?xml version="1.0" encoding="UTF-8"?>
<svg id="Ebene_1" xmlns="http://www.w3.org/2000/svg" version="1.1" viewBox="0 0 20 20">
  <!-- Generator: Adobe Illustrator 29.7.1, SVG Export Plug-In . SVG Version: 2.1.1 Build 8)  -->
  <defs>
    <style>
      .st0 {
        fill: #fff;
      }
    </style>
  </defs>
  <path class="st0" d="M10,13.5c.7,0,1.2-.2,1.8-.5.5-.3,1-.7,1.3-1.3.3-.5.5-1.1.5-1.8s-.2-1.2-.5-1.8c-.3-.5-.7-1-1.3-1.3-.5-.3-1.1-.5-1.8-.5s-1.2.2-1.8.5c-.5.3-1,.7-1.3,1.3-.3.5-.5,1.1-.5,1.8s.2,1.2.5,1.8c.3.5.7,1,1.3,1.3.5.3,1.1.5,1.8.5ZM10,12.1c-.4,0-.7,0-1.1-.3-.3-.2-.6-.4-.8-.8-.2-.3-.3-.7-.3-1.1s0-.7.3-1.1c.2-.3.4-.6.8-.8.3-.2.7-.3,1.1-.3s.7,0,1.1.3c.3.2.6.4.8.8.2.3.3.7.3,1.1s0,.7-.3,1.1c-.2.3-.4.6-.8.8-.3.2-.7.3-1.1.3ZM10,11.3c.4,0,.7-.1.9-.4.3-.3.4-.6.4-.9s-.1-.7-.4-.9c-.3-.3-.6-.4-.9-.4s-.7.1-.9.4c-.3.3-.4.6-.4.9s.1.7.4.9c.3.3.6.4.9.4ZM9.3,7.1V2.7c0-.9-.2-1.5-.7-2C8.2.2,7.5,0,6.7,0s-1.5.2-2.2.5c-.7.3-1.4.7-2,1.2-.6.5-1,1.1-1.4,1.7s-.5,1.3-.5,1.9.2,1.5.7,2.1c.5.6,1.2,1.1,2.1,1.6s2,.9,3.3,1.3l.6-1.3c-1.1-.4-2.1-.7-2.9-1.1-.8-.4-1.4-.7-1.8-1.1-.4-.4-.6-.9-.6-1.4s.1-.9.4-1.4.6-.9,1.1-1.3c.5-.4,1-.7,1.5-.9.6-.2,1.1-.3,1.6-.3s.7,0,.9.3c.2.2.3.5.3,1v4.9l1.4-.4v-.2ZM12.8,9.3h4.5c.9,0,1.5-.2,2-.7.5-.4.7-1.1.7-1.9s-.2-1.5-.5-2.2c-.3-.7-.7-1.4-1.2-2-.5-.6-1.1-1.1-1.7-1.4-.6-.4-1.3-.5-1.9-.5s-1.5.2-2.1.7c-.6.5-1.1,1.2-1.6,2.1s-.9,2-1.3,3.3l1.3.6c.4-1.1.7-2.1,1.1-2.9.4-.8.7-1.4,1.1-1.8.4-.4.9-.6,1.4-.6s.9.1,1.4.4.9.6,1.3,1.1.7,1,.9,1.5c.2.6.3,1.1.3,1.6s0,.7-.3.9c-.2.2-.5.2-1,.2h-4.9l.4,1.4v.2ZM10.7,12.9v4.5c0,.9.2,1.5.7,2,.4.5,1.1.7,1.9.7s1.5-.2,2.2-.5,1.4-.7,2-1.2,1.1-1.1,1.4-1.7c.4-.6.5-1.3.5-1.9s-.2-1.5-.7-2.1-1.2-1.1-2.1-1.6-2-.9-3.3-1.3l-.6,1.3c1.1.4,2.1.7,2.9,1.1s1.4.7,1.8,1.1c.4.4.6.9.6,1.4s-.1.9-.4,1.4-.6.9-1.1,1.3-1,.7-1.5.9c-.5.2-1.1.3-1.7.3s-.7,0-.9-.3c-.2-.2-.2-.5-.2-1v-4.9l-1.4.4h0ZM7.1,10.7H2.6c-.8,0-1.5.2-2,.7-.5.4-.7,1.1-.7,1.9s.2,1.5.5,2.2c.3.7.7,1.4,1.2,2s1.1,1.1,1.7,1.4c.6.4,1.3.5,1.9.5s1.5-.2,2.1-.7,1.1-1.2,1.6-2.1.9-2,1.3-3.3l-1.3-.6c-.4,1.1-.7,2.1-1.1,2.9-.4.8-.7,1.4-1.1,1.8s-.9.6-1.4.6-.9-.1-1.4-.4-.9-.6-1.3-1.1c-.4-.5-.7-1-.9-1.5-.2-.5-.3-1.1-.3-1.6s0-.7.3-.9c.2-.2.5-.3,1-.3h4.9l-.4-1.4h0Z"/>
</svg>