<?xml version="1.0" encoding="UTF-8"?>
<svg id="Ebene_1" xmlns="http://www.w3.org/2000/svg" version="1.1" viewBox="0 0 22 20">
  <!-- Generator: Adobe Illustrator 29.7.1, SVG Export Plug-In . SVG Version: 2.1.1 Build 8)  -->
  <defs>
    <style>
      .st0 {
        fill: #fff;
      }
    </style>
  </defs>
  <path class="st0" d="M8.3,18.6h5.3v-6.6c0-.2,0-.4-.2-.5-.1-.1-.3-.2-.5-.2h-3.9c-.2,0-.4,0-.5.2-.1.1-.2.3-.2.5v6.6ZM4.7,19.5h12.5c.7,0,1.2-.2,1.5-.5.4-.3.5-.8.5-1.5V7.5l-1.5-1v10.6c0,.3,0,.5-.2.7s-.4.2-.7.2H5.1c-.3,0-.5,0-.7-.2s-.2-.4-.2-.7V6.5l-1.5,1v10c0,.6.2,1.1.5,1.5.4.3.9.5,1.5.5ZM0,9.4c0,.2,0,.4.2.5.1.1.3.2.6.2h.4c.1,0,.2-.1.3-.2L10.7,2.3c.1,0,.2,0,.3,0s.2,0,.3,0l9.2,7.6s.2.1.3.2h.4c.2,0,.4,0,.6-.2.2-.1.2-.3.2-.5s0-.5-.3-.6L12.1.9c-.3-.3-.7-.4-1.1-.4s-.8,0-1.1.4L.3,8.8c-.2.2-.3.4-.3.6Z"/>
</svg>