<?xml version="1.0" encoding="UTF-8"?>
<svg id="Ebene_1" xmlns="http://www.w3.org/2000/svg" version="1.1" viewBox="0 0 17 23">
  <!-- Generator: Adobe Illustrator 29.7.1, SVG Export Plug-In . SVG Version: 2.1.1 Build 8)  -->
  <defs>
    <style>
      .st0 {
        fill: #fff;
        fill-opacity: .8;
      }
    </style>
  </defs>
  <path class="st0" d="M6,17.6h6.4v-.5l-1.3-1.3v.4h-4.2v-.6c0-.5,0-1-.3-1.5-.2-.5-.5-.9-.8-1.4s-.6-.9-.9-1.3c-.3-.4-.6-.9-.8-1.3-.2-.4-.3-.8-.3-1.2s0-.2,0-.3v-.3l-1.6-1.6v1c0,.8,0,1.6.3,2.2s.5,1.2.8,1.7.7,1,1,1.4c.3.4.6.9.8,1.3s.3.9.3,1.3v1.9s.2.1.4.1h.2ZM9.4,1.9c1.2,0,2.2.2,3.1.7.9.5,1.6,1.2,2.1,2,.5.9.7,1.9.7,3s-.1,1.3-.3,1.9-.5,1.1-.8,1.5c-.3.5-.6.9-.9,1.4l1,1c.3-.5.7-1,1.1-1.5.4-.5.7-1.1,1-1.8.3-.7.4-1.5.4-2.4s-.2-2.1-.5-2.9c-.3-.9-.8-1.6-1.5-2.3-.6-.6-1.4-1.1-2.3-1.5-.9-.3-1.9-.5-3-.5s-2.3.2-3.3.6c-1,.4-1.8,1-2.4,1.8l1,1c.5-.6,1.2-1.1,2-1.5.8-.4,1.7-.5,2.7-.5,0,0-.1,0-.1,0ZM9.4,22.5c.7,0,1.2-.1,1.6-.4.4-.3.7-.6.7-1.1h-4.7c0,.5.3.8.7,1.1.4.3,1,.4,1.6.4h0ZM6.4,20.2h6.2c.2,0,.4,0,.6-.3.2-.2.3-.4.3-.6s0-.5-.3-.6c-.2-.2-.4-.3-.6-.3h-6.2c-.2,0-.5,0-.6.3-.2.2-.3.4-.3.6s0,.5.3.6c.2.2.4.3.6.3ZM15.8,18.6c.1.1.3.2.5.2s.4,0,.5-.2c.1-.1.2-.3.2-.5s0-.4-.2-.5L1.2,2c-.1-.1-.3-.2-.5-.2s-.4,0-.5.2C0,2.2,0,2.3,0,2.6S0,3,.2,3.1l15.5,15.6h.1Z"/>
</svg>