<svg width="14" height="23" viewBox="0 0 14 23" fill="none" xmlns="http://www.w3.org/2000/svg">
<path d="M3.6981 17.6439H10.2928C10.4507 17.6439 10.5751 17.5964 10.6662 17.5013C10.7573 17.4063 10.8028 17.2796 10.8028 17.1212V15.6007C10.8028 15.1445 10.9106 14.7074 11.1262 14.2892C11.3418 13.8711 11.6074 13.445 11.9232 13.011C12.239 12.577 12.5562 12.1082 12.875 11.6045C13.1938 11.1009 13.461 10.5323 13.6766 9.89871C13.8922 9.26516 14 8.53658 14 7.71297C14 6.63593 13.833 5.65393 13.499 4.76696C13.165 3.87999 12.6898 3.11973 12.0735 2.48618C11.4571 1.85263 10.7193 1.36321 9.8601 1.01793C9.00085 0.672642 8.04596 0.5 6.99543 0.5C5.95097 0.5 4.99912 0.672642 4.13988 1.01793C3.28063 1.36321 2.54283 1.85263 1.92648 2.48618C1.31013 3.11973 0.834959 3.87999 0.500974 4.76696C0.166991 5.65393 0 6.63593 0 7.71297C0 8.53658 0.107786 9.26516 0.323357 9.89871C0.538927 10.5323 0.806112 11.1009 1.12491 11.6045C1.44372 12.1082 1.761 12.577 2.07677 13.011C2.39254 13.445 2.6582 13.8711 2.87377 14.2892C3.08934 14.7074 3.19713 15.1445 3.19713 15.6007V17.1212C3.19713 17.2796 3.24267 17.4063 3.33376 17.5013C3.42484 17.5964 3.54629 17.6439 3.6981 17.6439ZM4.55431 16.9882C4.55431 16.8361 4.55431 16.684 4.55431 16.532C4.55431 16.4243 4.55431 16.3166 4.55431 16.2089C4.55431 16.1645 4.55431 16.1202 4.55431 16.0759C4.55431 15.9238 4.55431 15.7717 4.55431 15.6197C4.55431 15.0621 4.44805 14.5458 4.23552 14.0706C4.02298 13.5955 3.75883 13.1298 3.44307 12.6737C3.1273 12.2175 2.81153 11.7455 2.49576 11.2577C2.18 10.7698 1.91433 10.2392 1.69876 9.66589C1.48319 9.09252 1.3754 8.44472 1.3754 7.72247C1.3754 6.56308 1.60919 5.5494 2.07677 4.68143C2.54435 3.81346 3.20017 3.13873 4.04423 2.65724C4.8883 2.17574 5.87203 1.93499 6.99543 1.93499C8.1249 1.93499 9.11014 2.17574 9.95114 2.65724C10.7922 3.13873 11.448 3.81346 11.9186 4.68143C12.3893 5.5494 12.6246 6.56308 12.6246 7.72247C12.6246 8.44472 12.5168 9.09252 12.3012 9.66589C12.0856 10.2392 11.82 10.7698 11.5042 11.2577C11.1885 11.7455 10.8727 12.2175 10.5569 12.6737C10.2411 13.1298 9.97697 13.5955 9.7645 14.0706C9.55196 14.5458 9.44569 15.0621 9.44569 15.6197C9.44569 15.8161 9.44569 16.0125 9.44569 16.2089C9.44569 16.2406 9.44569 16.2722 9.44569 16.3039C9.44569 16.532 9.44569 16.7601 9.44569 16.9882L10.1743 16.2089H9.44569H4.55431H3.82562L4.55431 16.9882ZM7.00454 22.5C7.63 22.5 8.14767 22.3606 8.55756 22.0818C8.96744 21.8031 9.19364 21.4356 9.23615 20.9795H4.77293C4.81543 21.4356 5.04011 21.8031 5.44696 22.0818C5.85381 22.3606 6.37301 22.5 7.00454 22.5ZM4.05334 20.2097H9.96485C10.1956 20.2097 10.393 20.1226 10.5569 19.9484C10.7209 19.7742 10.8028 19.5635 10.8028 19.3164C10.8028 19.0693 10.7209 18.8587 10.5569 18.6844C10.393 18.5103 10.1956 18.4232 9.96485 18.4232H4.05334C3.81651 18.4232 3.61612 18.5103 3.45217 18.6844C3.28822 18.8587 3.20624 19.0693 3.20624 19.3164C3.20624 19.5635 3.28822 19.7742 3.45217 19.9484C3.61612 20.1226 3.81651 20.2097 4.05334 20.2097Z" fill="#FFCC00"/>
<path d="M4.55431 16.0759V16.2089H9.44569V15.6197C9.44569 15.0621 9.55196 14.5458 9.7645 14.0706C9.97697 13.5955 10.2411 13.1298 10.5569 12.6737C10.8727 12.2175 11.1885 11.7455 11.5042 11.2577C11.82 10.7698 12.0856 10.2392 12.3012 9.66589C12.5168 9.09252 12.6246 8.44472 12.6246 7.72247C12.6246 6.56308 12.3893 5.5494 11.9186 4.68143C11.448 3.81346 10.7922 3.13873 9.95114 2.65724C9.11014 2.17574 8.1249 1.93499 6.99543 1.93499C5.87203 1.93499 4.8883 2.17574 4.04423 2.65724C3.20017 3.13873 2.54435 3.81346 2.07677 4.68143C1.60919 5.5494 1.3754 6.56308 1.3754 7.72247C1.3754 8.44472 1.48319 9.09252 1.69876 9.66589C1.91433 10.2392 2.18 10.7698 2.49576 11.2577C2.81153 11.7455 3.1273 12.2175 3.44307 12.6737C3.75883 13.1298 4.02298 13.5955 4.23552 14.0706C4.44805 14.5458 4.55431 15.0621 4.55431 15.6197V16.0759Z" fill="#FFCC00"/>
</svg>
