<?xml version="1.0" encoding="UTF-8"?>
<svg id="Ebene_1" xmlns="http://www.w3.org/2000/svg" version="1.1" viewBox="0 0 14 22">
  <!-- Generator: Adobe Illustrator 29.7.1, SVG Export Plug-In . SVG Version: 2.1.1 Build 8)  -->
  <defs>
    <style>
      .st0 {
        fill: #fff;
      }
    </style>
  </defs>
  <path class="st0" d="M10.8,18.8c0,.2,0,.4-.2.6-.2.3-.4.3-.6.3h-6c-.2,0-.4,0-.6-.3-.2-.2-.2-.4-.2-.6s0-.5.2-.6c.2-.2.4-.3.6-.3h6c.2,0,.4,0,.6.3.2,0,.2.4.2.6ZM14,7.2c0,.8,0,1.6-.3,2.2-.2.6-.5,1.2-.8,1.7-.4.5-.7,1-1,1.4-.3.5-.6.9-.8,1.3-.2.4-.3.8-.3,1.3v1.5c0,.2,0,.4,0,.4,0,.1-.2.1-.4.1H3.7c-.2,0-.3,0-.4-.1,0,0,0-.2,0-.4v-1.5c0-.5-.1-.9-.3-1.3-.2-.4-.5-.8-.8-1.3-.3-.4-.6-.9-1-1.4-.3-.5-.6-1.1-.8-1.7-.2-.6-.3-1.4-.3-2.2s.2-2.1.5-2.9c.3-.9.8-1.6,1.4-2.3.6-.6,1.4-1.1,2.2-1.5C5,.2,5.9,0,7,0s2,.2,2.9.5c.8.4,1.6.9,2.2,1.5.6.7,1.1,1.4,1.4,2.3.3.8.5,2.1.5,2.9ZM12.9,7.3c0-1.1-.2-2.1-.7-3-.5-.8-1.2-1.5-2-2-.9-.5-1.8-.7-3-.7s-.1,0-.2,0c0,0-.1,0-.2,0-1.2,0-2.1.2-3,.7-.8.5-1.5,1.2-2,2-.5.9-.7,1.9-.7,3s0,1.4.3,1.9c.2.6.5,1.1.8,1.6.3.5.6,1,.9,1.4.3.5.6.9.8,1.4.2.5.3,1,.3,1.5v.6h5.6v-.6c0-.5,0-1,.3-1.5.2-.5.5-.9.8-1.4.3-.4.6-.9.9-1.4.3-.5.6-1,.8-1.6.2-.5.3-.8.3-1.9ZM4.7,20.5c0,.5.3.8.7,1.1.5.3,1,.4,1.5.4,0,0,0,0,0,0h0s0,0,0,0c0,0,0,0,0,0,0,0,0,0,0,0,0,0,0,0,0,0h0s0,0,0,0c.6,0,1.1-.1,1.5-.4.4-.3.6-.6.7-1.1h-4.6Z"/>
</svg>