<?xml version="1.0" encoding="UTF-8"?>
<svg id="Ebene_1" xmlns="http://www.w3.org/2000/svg" version="1.1" viewBox="0 0 14 22">
  <!-- Generator: Adobe Illustrator 29.7.1, SVG Export Plug-In . SVG Version: 2.1.1 Build 8)  -->
  <defs>
    <style>
      .st0 {
        fill: #fff;
      }
    </style>
  </defs>
  <path class="st0" d="M3.7,17.1h6.6c.2,0,.3,0,.4-.1,0,0,.1-.2.1-.4v-1.5c0-.5.1-.9.3-1.3.2-.4.5-.8.8-1.3.3-.4.6-.9,1-1.4.3-.5.6-1.1.8-1.7.2-.6.3-1.4.3-2.2s-.2-2.1-.5-2.9c-.3-.9-.8-1.6-1.4-2.3-.6-.6-1.4-1.1-2.2-1.5C9,.2,8.1,0,7,0s-2,.2-2.9.5c-.9.3-1.6.8-2.2,1.5-.6.6-1.1,1.4-1.4,2.3C.2,5.2,0,6.2,0,7.2s.1,1.6.3,2.2c.2.6.5,1.2.8,1.7.3.5.6,1,1,1.4.3.4.6.9.8,1.3.2.4.3.9.3,1.3v1.9s.2.1.4.1c0,0,0,0,0,0ZM4.6,16.5v-1.4c0-.6,0-1.1-.3-1.5-.2-.5-.5-.9-.8-1.4s-.6-.9-.9-1.4c-.3-.5-.6-1-.8-1.6-.2-.6-.3-1.2-.3-1.9,0-1.2.2-2.2.7-3,.5-.9,1.1-1.5,2-2,.8-.5,1.8-.7,3-.7s2.1.2,3,.7c.8.5,1.5,1.2,2,2,.5.9.7,1.9.7,3s-.1,1.4-.3,1.9c-.2.6-.5,1.1-.8,1.6s-.6,1-.9,1.4c-.3.5-.6.9-.8,1.4s-.3,1-.3,1.5v1.4l.7-.8H3.8l.7.8h0ZM7,22c.6,0,1.1-.1,1.6-.4.4-.3.6-.6.7-1.1h-4.5c0,.5.3.8.7,1.1.4.3.9.4,1.6.4h0ZM4.1,19.7h5.9c.2,0,.4,0,.6-.3.2-.2.2-.4.2-.6s0-.5-.2-.6c-.2-.2-.4-.3-.6-.3h-5.9c-.2,0-.4,0-.6.3-.2.2-.2.4-.2.6s0,.5.2.6c.2.2.4.3.6.3Z"/>
</svg>