<?xml version="1.0" encoding="UTF-8"?>
<svg id="Ebene_1" xmlns="http://www.w3.org/2000/svg" version="1.1" viewBox="0 0 14 19">
  <!-- Generator: Adobe Illustrator 29.7.1, SVG Export Plug-In . SVG Version: 2.1.1 Build 8)  -->
  <defs>
    <style>
      .st0 {
        fill: #fff;
        opacity: .5;
      }
    </style>
  </defs>
  <path class="st0" d="M2.3,18.5h9.4c.8,0,1.3-.2,1.7-.5.4-.4.6-.9.6-1.7v-6.3c0-.7-.2-1.3-.6-1.6-.4-.4-1-.5-1.7-.5H2.3c-.8,0-1.3.2-1.7.5s-.6.9-.6,1.6v6.3c0,.8.2,1.3.6,1.7.4.4,1,.5,1.7.5ZM2.4,17.1c-.2,0-.4,0-.5-.2-.1-.1-.2-.3-.2-.5v-6.5c0-.3,0-.4.2-.5,0-.1.3-.2.5-.2h9.3c.2,0,.4,0,.5.2.1.1.2.3.2.5v6.5c0,.3,0,.4-.2.5-.1.1-.3.2-.5.2H2.4ZM1.8,8.5h1.7v-3.1c0-.8.2-1.4.5-1.9.3-.5.8-.9,1.3-1.2s1.1-.4,1.8-.4,1.2.1,1.8.4c.5.3,1,.7,1.3,1.2s.5,1.2.5,1.9v3.1h1.7v-2.9c0-.9-.1-1.6-.4-2.3-.3-.6-.7-1.2-1.2-1.6s-1.1-.7-1.7-1c-.6-.2-1.3-.3-1.9-.3s-1.3,0-1.9.3c-.6.2-1.2.5-1.7,1-.5.5-.9,1-1.2,1.6-.3.6-.4,1.4-.4,2.3v2.9h-.2Z"/>
  <path class="st0" d="M2.4,17.1c-.2,0-.4,0-.5-.2-.1-.1-.2-.3-.2-.5v-6.5c0-.3,0-.4.2-.5,0-.1.3-.2.5-.2h9.3c.2,0,.4,0,.5.2.1.1.2.3.2.5v6.5c0,.3,0,.4-.2.5-.1.1-.3.2-.5.2H2.4Z"/>
</svg>