<?xml version="1.0" encoding="UTF-8"?>
<svg id="Ebene_1" xmlns="http://www.w3.org/2000/svg" version="1.1" viewBox="0 0 18 19">
  <!-- Generator: Adobe Illustrator 29.7.1, SVG Export Plug-In . SVG Version: 2.1.1 Build 8)  -->
  <defs>
    <style>
      .st0 {
        fill: #00c3d0;
      }
    </style>
  </defs>
  <path class="st0" d="M2,18.5h8c.7,0,1.1-.2,1.5-.5s.5-.9.5-1.7v-6.3c0-.7-.2-1.3-.5-1.6s-.8-.5-1.5-.5H2c-.7,0-1.1.2-1.5.5-.3.4-.5.9-.5,1.6v6.3c0,.8.2,1.3.5,1.7.3.4.8.5,1.5.5ZM2,17.1c-.2,0-.4,0-.5-.2,0-.1-.1-.3-.1-.5v-6.5c0-.3,0-.4.1-.5,0-.1.3-.2.5-.2h7.9c.2,0,.4,0,.5.2,0,.1.1.3.1.5v6.5c0,.3,0,.4-.1.5s-.2.2-.5.2H2ZM9.1,8.5h1.4v-3.1c0-.8.1-1.4.4-1.9.3-.5.7-.9,1.1-1.2.5-.3,1-.4,1.5-.4s1,.1,1.5.4c.5.3.8.7,1.1,1.2.3.5.4,1.2.4,1.9v2c0,.3,0,.5.2.6.1.1.3.2.5.2s.4,0,.5-.2c.1-.1.2-.3.2-.6v-1.8c0-.9-.1-1.6-.4-2.3-.2-.6-.6-1.2-1-1.6s-.9-.7-1.4-1c-.5-.2-1.1-.3-1.7-.3s-1.1.1-1.7.3c-.5.2-1,.5-1.4,1-.4.4-.8,1-1,1.6-.2.6-.4,1.4-.4,2.3v2.9Z"/>
  <path class="st0" d="M2,17.1c-.2,0-.4,0-.5-.2,0-.1-.1-.3-.1-.5v-6.5c0-.3,0-.4.1-.5,0-.1.3-.2.5-.2h7.9c.2,0,.4,0,.5.2,0,.1.1.3.1.5v6.5c0,.3,0,.4-.1.5s-.2.2-.5.2H2Z"/>
</svg>