<svg width="17" height="21" viewBox="0 0 17 21" fill="none" xmlns="http://www.w3.org/2000/svg">
<path fill-rule="evenodd" clip-rule="evenodd" d="M8.49998 18.708C8.42297 18.708 8.33954 18.6898 8.24969 18.6536C8.15983 18.6172 8.04431 18.5561 7.90312 18.4703C6.79281 17.7773 5.8606 17.1816 5.10649 16.6832C4.35238 16.1849 3.7507 15.7096 3.30144 15.2574C2.85218 14.8053 2.52807 14.3119 2.32912 13.7773C2.13016 13.2426 2.03068 12.5925 2.03068 11.8268V4.92575C2.03068 4.76073 2.05154 4.63697 2.09326 4.55446C2.13498 4.47195 2.22322 4.4043 2.358 4.3515C2.64681 4.23268 2.98375 4.10066 3.36883 3.95545C3.7539 3.81024 4.16144 3.65842 4.59145 3.5C5.02145 3.34159 5.45145 3.18483 5.88145 3.02971C6.31146 2.87459 6.719 2.72443 7.10408 2.57921C7.48916 2.434 7.8261 2.30199 8.11491 2.18317C8.19193 2.15017 8.26252 2.12707 8.3267 2.11387C8.39088 2.10066 8.44864 2.09406 8.49998 2.09406C8.55133 2.09406 8.60909 2.10066 8.67327 2.11387C8.73745 2.12707 8.80805 2.15017 8.88506 2.18317C9.17387 2.30199 9.51081 2.43565 9.89589 2.58416C10.281 2.73268 10.6869 2.8878 11.1137 3.04951C11.5405 3.21122 11.9673 3.37129 12.3941 3.52971C12.8208 3.68812 13.2284 3.83829 13.6167 3.98021C14.005 4.12212 14.35 4.24589 14.6516 4.3515C14.78 4.3977 14.865 4.46371 14.9068 4.54951C14.9484 4.63532 14.9693 4.76073 14.9693 4.92575V11.8268C14.9693 12.5925 14.8714 13.2426 14.6757 13.7773C14.4799 14.3119 14.1558 14.8037 13.7034 15.2525C13.2509 15.7014 12.6476 16.1766 11.8935 16.6782C11.1394 17.1799 10.2072 17.7773 9.09685 18.4703C8.95566 18.5561 8.84014 18.6172 8.75028 18.6536C8.66043 18.6898 8.577 18.708 8.49998 18.708ZM9.23163 11.0247C9.22522 11.5462 8.98133 11.8069 8.49998 11.8069C8.0058 11.8069 7.75229 11.5462 7.73946 11.0247L7.61431 5.78714C7.60789 5.53631 7.68651 5.32839 7.85016 5.16338C8.01382 4.99836 8.22722 4.91585 8.49036 4.91585C8.74707 4.91585 8.96047 5.00001 9.13055 5.16833C9.30062 5.33664 9.38245 5.54621 9.37604 5.79704L9.23163 11.0247ZM9.22682 14.7278C9.01824 14.9258 8.77596 15.0248 8.49998 15.0248C8.21759 15.0248 7.97372 14.9242 7.76834 14.7228C7.56297 14.5215 7.46028 14.2789 7.46028 13.9951C7.46028 13.7112 7.56297 13.4687 7.76834 13.2674C7.97372 13.066 8.21759 12.9654 8.49998 12.9654C8.78237 12.9654 9.02626 13.0644 9.23163 13.2624C9.43701 13.4604 9.53969 13.7046 9.53969 13.9951C9.53969 14.2855 9.4354 14.5297 9.22682 14.7278Z" fill="#FF3B30"/>
<path fill-rule="evenodd" clip-rule="evenodd" d="M8.49998 20.5C8.577 20.5 8.67327 20.4835 8.78879 20.4505C8.90431 20.4175 9.02305 20.368 9.14499 20.302C10.5184 19.51 11.6753 18.8086 12.6155 18.198C13.5557 17.5875 14.3114 16.9951 14.8826 16.4208C15.4538 15.8466 15.8662 15.2245 16.1197 14.5545C16.3732 13.8845 16.5 13.0974 16.5 12.1931V4.61882C16.5 4.09737 16.3941 3.72443 16.1823 3.5C15.9705 3.27558 15.6592 3.07426 15.2484 2.89605C15.0238 2.79704 14.7126 2.66997 14.3147 2.51485C13.9167 2.35974 13.4787 2.19142 13.0006 2.00991C12.5224 1.82839 12.0427 1.64852 11.5613 1.4703C11.08 1.29208 10.6404 1.13037 10.2425 0.98515C9.84454 0.839935 9.53327 0.727723 9.30865 0.648515C9.18029 0.608911 9.04711 0.574258 8.90913 0.544554C8.77114 0.514851 8.63476 0.5 8.49998 0.5C8.36521 0.5 8.23043 0.516502 8.09566 0.549505C7.96088 0.582508 7.82931 0.615512 7.70095 0.648515C7.4699 0.714522 7.15542 0.818483 6.75751 0.960397C6.3596 1.10231 5.92157 1.26403 5.44343 1.44555C4.9653 1.62707 4.48555 1.81023 4.00421 1.99506C3.52286 2.17987 3.08323 2.35149 2.68532 2.50991C2.2874 2.66832 1.97613 2.79704 1.7515 2.89605C1.34717 3.06767 1.0375 3.26734 0.822502 3.49506C0.607501 3.72278 0.5 4.09737 0.5 4.61882V12.1931C0.5 13.0974 0.628359 13.8829 0.885077 14.5495C1.1418 15.2162 1.55575 15.8366 2.12695 16.4109C2.69815 16.9851 3.45387 17.5792 4.3941 18.1932C5.33433 18.807 6.48796 19.51 7.85498 20.302C7.97692 20.368 8.09565 20.4175 8.21118 20.4505C8.3267 20.4835 8.42297 20.5 8.49998 20.5ZM8.49998 18.708C8.42297 18.708 8.33954 18.6898 8.24969 18.6536C8.15983 18.6172 8.04431 18.5561 7.90312 18.4703C6.79281 17.7773 5.8606 17.1816 5.10649 16.6832C4.35238 16.1849 3.7507 15.7096 3.30144 15.2574C2.85218 14.8053 2.52807 14.3119 2.32912 13.7773C2.13016 13.2426 2.03068 12.5925 2.03068 11.8268V4.92575C2.03068 4.76073 2.05154 4.63697 2.09326 4.55446C2.13498 4.47195 2.22322 4.4043 2.358 4.3515C2.64681 4.23268 2.98375 4.10066 3.36883 3.95545C3.7539 3.81024 4.16144 3.65842 4.59145 3.5C5.02145 3.34159 5.45145 3.18483 5.88145 3.02971C6.31146 2.87459 6.719 2.72443 7.10408 2.57921C7.48916 2.434 7.8261 2.30199 8.11491 2.18317C8.19193 2.15017 8.26252 2.12707 8.3267 2.11387C8.39088 2.10066 8.44864 2.09406 8.49998 2.09406C8.55133 2.09406 8.60909 2.10066 8.67327 2.11387C8.73745 2.12707 8.80805 2.15017 8.88506 2.18317C9.17387 2.30199 9.51081 2.43565 9.89589 2.58416C10.281 2.73268 10.6869 2.8878 11.1137 3.04951C11.5405 3.21122 11.9673 3.37129 12.3941 3.52971C12.8208 3.68812 13.2284 3.83829 13.6167 3.98021C14.005 4.12212 14.35 4.24589 14.6516 4.3515C14.78 4.3977 14.865 4.46371 14.9068 4.54951C14.9484 4.63532 14.9693 4.76073 14.9693 4.92575V11.8268C14.9693 12.5925 14.8714 13.2426 14.6757 13.7773C14.4799 14.3119 14.1558 14.8037 13.7034 15.2525C13.2509 15.7014 12.6476 16.1766 11.8935 16.6782C11.1394 17.1799 10.2072 17.7773 9.09685 18.4703C8.95566 18.5561 8.84014 18.6172 8.75028 18.6536C8.66043 18.6898 8.577 18.708 8.49998 18.708Z" fill="#FF3B30"/>
</svg>
