<?xml version="1.0" encoding="UTF-8"?>
<svg id="Ebene_1" xmlns="http://www.w3.org/2000/svg" version="1.1" viewBox="0 0 20 20">
  <!-- Generator: Adobe Illustrator 29.7.1, SVG Export Plug-In . SVG Version: 2.1.1 Build 8)  -->
  <defs>
    <style>
      .st0 {
        fill: #fff;
      }
    </style>
  </defs>
  <path class="st0" d="M19.1.8c-.6-.6-1.4-.8-2.6-.8H3.4C2.3,0,1.4.3.9.8c-.6.6-.9,1.4-.9,2.5v13.3c0,1.1.3,2,.9,2.5.6.6,1.4.8,2.6.8h13.2c1.1,0,2-.3,2.6-.8.6-.6.9-1.4.9-2.5V3.4c0-1.1-.3-2-.9-2.5h0ZM18.3,16.5c0,.6-.2,1-.5,1.3-.3.3-.7.4-1.2.4h-5.7v-5.7c0-.6.1-1,.4-1.3.3-.3.7-.4,1.3-.4h5.7v5.7ZM12.6,9.1c-1.1,0-2,.3-2.6.8-.6.6-.9,1.4-.9,2.5v5.8H3.4c-.5,0-1-.1-1.3-.4-.3-.3-.4-.7-.4-1.3V3.5c0-.6.1-1,.4-1.3.3-.3.7-.4,1.3-.4h13.1c.5,0,1,.1,1.2.4.3.3.5.7.5,1.3v5.7h-5.7,0Z"/>
</svg>