<?xml version="1.0" encoding="UTF-8"?>
<svg id="Ebene_1" xmlns="http://www.w3.org/2000/svg" version="1.1" viewBox="0 0 24 22">
  <!-- Generator: Adobe Illustrator 29.7.1, SVG Export Plug-In . SVG Version: 2.1.1 Build 8)  -->
  <defs>
    <style>
      .st0 {
        fill: #fff;
      }
    </style>
  </defs>
  <path class="st0" d="M12,19.9c1,0,1.9-.2,2.8-.6.9-.4,1.6-.9,2.3-1.6.7-.7,1.2-1.4,1.6-2.3.4-.9.6-1.8.6-2.8s-.2-2-.6-2.8c-.4-.9-.9-1.7-1.6-2.3-.7-.7-1.4-1.2-2.3-1.6-.9-.4-1.8-.6-2.8-.6s-1.9.2-2.8.6c-.9.4-1.6.9-2.3,1.6-.7.7-1.2,1.4-1.6,2.3-.4.9-.6,1.8-.6,2.8s.2,2,.6,2.8c.4.9.9,1.7,1.6,2.3.7.7,1.4,1.2,2.3,1.6.9.4,1.8.6,2.8.6ZM12,6.9c.8,0,1.5.1,2.2.4.7.3,1.3.7,1.8,1.2.5.5.9,1.1,1.2,1.8.3.7.4,1.4.4,2.2s-.1,1.5-.4,2.2c-.3.7-.7,1.3-1.2,1.8-.5.5-1.1.9-1.8,1.2-.7.3-1.4.4-2.2.4s-1.5-.1-2.2-.4c-.7-.3-1.3-.7-1.8-1.2-.5-.5-.9-1.1-1.2-1.8-.3-.7-.4-1.4-.4-2.2s.1-1.5.4-2.2c.3-.7.7-1.3,1.2-1.8.5-.5,1.1-.9,1.8-1.2.7-.3,1.4-.4,2.2-.4ZM8.4,17.1l4.1-4.2c.2-.2.2-.3.2-.5s0-.4-.2-.5c-.1-.1-.3-.2-.5-.2s-.4,0-.5.2l-4.1,4.2,1,1.1ZM4.4,21.5c.3,0,.6-.1.9-.4.2-.2.4-.5.4-.9s-.1-.6-.4-.9c-.2-.2-.5-.4-.9-.4s-.6.1-.9.4c-.2.2-.4.5-.4.9s.1.6.4.9.5.4.9.4ZM1.2,13.9c.3,0,.6-.1.9-.4.2-.2.4-.5.4-.9s-.1-.6-.4-.9c-.2-.2-.5-.4-.9-.4s-.6.1-.9.4c-.2.2-.4.5-.4.9s.1.6.4.9c.2.2.5.4.9.4ZM4.4,6.2c.3,0,.6-.1.9-.4.2-.2.4-.5.4-.9s-.1-.6-.4-.9c-.2-.2-.5-.4-.9-.4s-.6.1-.9.4c-.2.2-.4.5-.4.9s.1.6.4.9c.2.2.5.4.9.4ZM12,3c.3,0,.6-.1.9-.4.2-.2.4-.5.4-.9s-.1-.6-.4-.9c-.2-.2-.5-.4-.9-.4s-.6.1-.9.4c-.2.2-.4.5-.4.9s.1.6.4.9c.2.2.5.4.9.4ZM19.6,6.2c.3,0,.6-.1.9-.4.2-.2.4-.5.4-.9s-.1-.6-.4-.9c-.2-.2-.5-.4-.9-.4s-.6.1-.9.4c-.2.2-.4.5-.4.9s.1.6.4.9c.2.2.5.4.9.4ZM22.8,13.9c.3,0,.6-.1.9-.4.2-.2.4-.5.4-.9s-.1-.6-.4-.9c-.2-.2-.5-.4-.9-.4s-.6.1-.9.4-.4.5-.4.9.1.6.4.9c.2.2.5.4.9.4ZM19.6,21.5c.3,0,.6-.1.9-.4.2-.2.4-.5.4-.9s-.1-.6-.4-.9c-.2-.2-.5-.4-.9-.4s-.6.1-.9.4c-.2.2-.4.5-.4.9s.1.6.4.9.5.4.9.4Z"/>
</svg>