<svg width="18" height="23" viewBox="0 0 18 23" fill="none" xmlns="http://www.w3.org/2000/svg">
<path d="M10.3427 22.5C10.4725 22.5 10.5795 22.4598 10.6638 22.3794C10.7481 22.299 10.8032 22.1913 10.8292 22.0564C10.9654 21.0018 11.1194 20.1113 11.2913 19.3847C11.4632 18.6581 11.6903 18.0601 11.9724 17.5908C12.2546 17.1214 12.6292 16.7468 13.0962 16.4671C13.5633 16.1874 14.1568 15.9672 14.8767 15.8064C15.5967 15.6457 16.4854 15.5074 17.5427 15.3917C17.6789 15.3788 17.7892 15.3274 17.8736 15.2374C17.9579 15.1474 18 15.0381 18 14.9094C18 14.7873 17.9579 14.6812 17.8736 14.5912C17.7892 14.5012 17.6789 14.4497 17.5427 14.4368C16.4854 14.3211 15.5967 14.1828 14.8767 14.0221C14.1568 13.8614 13.5633 13.6396 13.0962 13.3567C12.6292 13.0737 12.2546 12.6976 11.9724 12.2282C11.6903 11.7588 11.4632 11.1624 11.2913 10.4391C11.1194 9.7157 10.9654 8.82354 10.8292 7.76261C10.8032 7.634 10.7481 7.52951 10.6638 7.44914C10.5795 7.36877 10.4725 7.32858 10.3427 7.32858C10.2195 7.32858 10.1141 7.36877 10.0265 7.44914C9.93893 7.52951 9.88541 7.634 9.86595 7.76261C9.72973 8.82354 9.57568 9.7157 9.40379 10.4391C9.2319 11.1624 9.00325 11.7588 8.71784 12.2282C8.43243 12.6976 8.05622 13.0737 7.58919 13.3567C7.12216 13.6396 6.52865 13.8614 5.80865 14.0221C5.08865 14.1828 4.20324 14.3211 3.15243 14.4368C3.00973 14.4497 2.89622 14.5012 2.8119 14.5912C2.72757 14.6812 2.6854 14.7873 2.6854 14.9094C2.6854 15.0381 2.72757 15.1474 2.8119 15.2374C2.89622 15.3274 3.00973 15.3788 3.15243 15.3917C4.20324 15.5267 5.08703 15.6794 5.80379 15.8498C6.52055 16.0202 7.11082 16.2437 7.5746 16.5202C8.03838 16.7966 8.41298 17.1664 8.69838 17.6294C8.98379 18.0923 9.21244 18.6822 9.38433 19.3991C9.55622 20.1161 9.71676 21.0018 9.86595 22.0564C9.88541 22.1913 9.93893 22.299 10.0265 22.3794C10.1141 22.4598 10.2195 22.5 10.3427 22.5ZM3.74595 11.8327C3.83676 11.8327 3.91135 11.8038 3.96974 11.7459C4.02811 11.688 4.06379 11.6173 4.07676 11.5338C4.16108 10.8908 4.24865 10.3892 4.33946 10.0292C4.43027 9.66907 4.57135 9.39741 4.7627 9.21416C4.95406 9.0309 5.23946 8.88944 5.61892 8.78978C5.99838 8.69012 6.52541 8.57599 7.2 8.44739C7.3946 8.40881 7.49189 8.2995 7.49189 8.11946C7.49189 8.02944 7.46432 7.95549 7.40919 7.89762C7.35406 7.83976 7.28433 7.80761 7.2 7.80118C6.52541 7.70473 5.99676 7.6115 5.61406 7.52148C5.23135 7.43146 4.94432 7.29161 4.75298 7.10193C4.56162 6.91224 4.42216 6.63093 4.3346 6.258C4.24703 5.88506 4.16108 5.37388 4.07676 4.72446C4.05081 4.5187 3.94054 4.41582 3.74595 4.41582C3.55136 4.41582 3.44108 4.52192 3.41513 4.73411C3.3373 5.3771 3.25298 5.87702 3.16217 6.23388C3.07135 6.59075 2.92865 6.8592 2.73405 7.03923C2.53946 7.21927 2.25081 7.35912 1.86811 7.45879C1.48541 7.55845 0.960002 7.67259 0.291892 7.80118C0.0972974 7.83333 0 7.93942 0 8.11946C0 8.30593 0.11027 8.41524 0.330811 8.44739C0.992429 8.5567 1.51297 8.65958 1.89243 8.75603C2.27189 8.85248 2.5573 8.99232 2.74865 9.17558C2.94 9.35883 3.07946 9.63371 3.16703 10.0002C3.2546 10.3667 3.3373 10.8715 3.41513 11.5144C3.44108 11.7266 3.55136 11.8327 3.74595 11.8327ZM8.45514 5.19706C8.5719 5.19706 8.64325 5.13276 8.66919 5.00417C8.74054 4.61194 8.8054 4.3033 8.86378 4.07826C8.92217 3.85321 9.00811 3.68121 9.12162 3.56226C9.23514 3.4433 9.40865 3.34846 9.64216 3.27773C9.87568 3.207 10.2033 3.13627 10.6249 3.06554C10.7546 3.03982 10.8195 2.96587 10.8195 2.84371C10.8195 2.72797 10.7546 2.65724 10.6249 2.63152C10.2033 2.55436 9.87568 2.48203 9.64216 2.41451C9.40865 2.347 9.23514 2.25376 9.12162 2.13481C9.00811 2.01585 8.92217 1.84385 8.86378 1.6188C8.8054 1.39376 8.74054 1.08512 8.66919 0.692897C8.64325 0.564299 8.5719 0.5 8.45514 0.5C8.33189 0.5 8.26054 0.564299 8.24108 0.692897C8.16325 1.08512 8.09676 1.39376 8.04163 1.6188C7.98649 1.84385 7.90216 2.01585 7.78865 2.13481C7.67513 2.25376 7.50162 2.347 7.26811 2.41451C7.0346 2.48203 6.70703 2.55436 6.2854 2.63152C6.15568 2.65724 6.09081 2.72797 6.09081 2.84371C6.09081 2.96587 6.15568 3.03982 6.2854 3.06554C6.70703 3.13627 7.0346 3.207 7.26811 3.27773C7.50162 3.34846 7.67513 3.4433 7.78865 3.56226C7.90216 3.68121 7.98649 3.85321 8.04163 4.07826C8.09676 4.3033 8.16325 4.61194 8.24108 5.00417C8.26054 5.13276 8.33189 5.19706 8.45514 5.19706Z" fill="#34C759"/>
</svg>
