<svg width="18" height="18" viewBox="0 0 18 18" fill="none" xmlns="http://www.w3.org/2000/svg">
<path d="M1.66239 8.08917H6.78809C7.26219 8.08917 7.62853 7.96142 7.88712 7.70591C8.14572 7.45039 8.27501 7.09117 8.27501 6.62824V1.63226C8.27501 1.39779 8.19497 1.1994 8.03489 1.03708C7.87481 0.87475 7.67163 0.793587 7.42535 0.793587C7.17907 0.793587 6.97743 0.873244 6.82042 1.03256C6.66342 1.19188 6.58492 1.39178 6.58492 1.63226V2.38978L6.77886 5.53706L4.34068 3.03908L1.50539 0.243486C1.34531 0.0811621 1.14828 0 0.914315 0C0.649564 0 0.430991 0.0781563 0.258595 0.234469C0.0861982 0.390781 0 0.59519 0 0.847695C0 0.967934 0.0215495 1.08066 0.0646486 1.18587C0.107748 1.29108 0.172396 1.38577 0.258595 1.46994L3.10313 4.24749L5.66137 6.61923L2.43817 6.43887H1.66239C1.41611 6.43887 1.20985 6.51553 1.04362 6.66883C0.877375 6.82213 0.794254 7.01903 0.794254 7.25951C0.794254 7.49999 0.877375 7.69839 1.04362 7.8547C1.20985 8.01102 1.41611 8.08917 1.66239 8.08917ZM10.5192 17.2425C10.7593 17.2425 10.9595 17.1628 11.1195 17.0035C11.2796 16.8442 11.3597 16.6443 11.3597 16.4038V15.5471L11.1657 12.4088L13.6039 14.9068L16.5039 17.7565C16.6578 17.9188 16.8548 18 17.095 18C17.3535 18 17.569 17.9218 17.7414 17.7655C17.9138 17.6092 18 17.4048 18 17.1523C18 17.032 17.9784 16.9193 17.9353 16.8141C17.8923 16.7089 17.8307 16.6142 17.7506 16.5301L14.8415 13.6894L12.274 11.3177L15.5064 11.498H16.3838C16.63 11.498 16.8363 11.4228 17.0026 11.2725C17.1688 11.1222 17.2519 10.9269 17.2519 10.6864C17.2519 10.4399 17.1688 10.24 17.0026 10.0866C16.8363 9.93333 16.63 9.85668 16.3838 9.85668H11.1565C10.6824 9.85668 10.3161 9.98295 10.0575 10.2355C9.79888 10.488 9.66957 10.8457 9.66957 11.3086V16.4038C9.66957 16.6443 9.74961 16.8442 9.90969 17.0035C10.0698 17.1628 10.2729 17.2425 10.5192 17.2425Z" fill="white"/>
</svg>
