<?xml version="1.0" encoding="UTF-8"?>
<svg id="Ebene_1" xmlns="http://www.w3.org/2000/svg" version="1.1" viewBox="0 0 15 20">
  <!-- Generator: Adobe Illustrator 29.7.1, SVG Export Plug-In . SVG Version: 2.1.1 Build 8)  -->
  <defs>
    <style>
      .st0 {
        fill: #fff;
      }
    </style>
  </defs>
  <path class="st0" d="M0,2.7v14.5c0,.9.2,1.6.7,2.1.5.5,1.1.7,2.1.7h9.5c.9,0,1.6-.2,2.1-.7.5-.5.7-1.1.7-2.1V2.7c0-.9-.2-1.6-.7-2.1-.5-.5-1.1-.7-2.1-.7H2.7C1.8,0,1.1.2.7.7c-.5.5-.7,1.1-.7,2.1ZM1.6,2.8c0-.4.1-.7.3-.9.2-.2.5-.3.9-.3h9.4c.4,0,.7.1.9.3.2.2.3.5.3.9v14.5c0,.4-.1.7-.3.9-.2.2-.5.3-.9.3H2.8c-.4,0-.7-.1-.9-.3-.2-.2-.3-.5-.3-.9V2.8ZM7.5,16.9c.7,0,1.4-.2,2-.5.6-.4,1.1-.8,1.4-1.4.4-.6.5-1.3.5-2s-.2-1.4-.5-2c-.4-.6-.8-1.1-1.4-1.4-.6-.4-1.3-.5-2-.5-.7,0-1.4.2-2,.5-.6.4-1.1.8-1.4,1.4-.4.6-.5,1.3-.5,2s.2,1.4.5,2c.4.6.8,1.1,1.4,1.4.6.4,1.3.5,2,.5ZM7.5,14.6c-.5,0-.9-.2-1.2-.5-.3-.3-.5-.7-.5-1.2s.2-.9.5-1.2c.3-.3.7-.5,1.2-.5s.9.2,1.2.5c.3.3.5.7.5,1.2s-.2.9-.5,1.2c-.3.3-.7.5-1.2.5ZM7.5,7.5c.4,0,.8,0,1.1-.3.3-.2.6-.5.8-.8.2-.3.3-.7.3-1.1,0-.6-.2-1.1-.7-1.5-.4-.4-1-.6-1.6-.6-.4,0-.8,0-1.1.3-.3.2-.6.5-.8.8-.2.3-.3.7-.3,1.1s0,.8.3,1.1c.2.3.5.6.8.8.3.2.7.3,1.1.3ZM7.5,6.4c-.3,0-.6-.1-.8-.3-.2-.2-.3-.5-.3-.8s.1-.6.3-.8c.2-.2.5-.3.8-.3s.6.1.8.3c.2.2.3.5.3.8s-.1.6-.3.8c-.2.2-.5.3-.8.3Z"/>
</svg>