<?xml version="1.0" encoding="UTF-8"?>
<svg id="Ebene_1" xmlns="http://www.w3.org/2000/svg" version="1.1" viewBox="0 0 14 20">
  <!-- Generator: Adobe Illustrator 29.7.1, SVG Export Plug-In . SVG Version: 2.1.1 Build 8)  -->
  <defs>
    <style>
      .st0 {
        fill: #fff;
        fill-opacity: .8;
      }
    </style>
  </defs>
  <path class="st0" d="M7,20c1.4,0,2.6-.3,3.7-.8,1.1-.6,1.9-1.3,2.4-2.3.6-1,.9-2.2.9-3.5s0-1.3-.2-1.9c-.1-.6-.3-1.2-.5-1.8-.2-.6-.4-1.1-.6-1.5-.5-1.2-1.2-2.4-2-3.7-.8-1.3-1.5-2.4-2.3-3.6-.2-.3-.4-.5-.6-.6-.2-.1-.5-.2-.8-.2s-.6,0-.8.2c-.2.1-.4.3-.6.6-.7,1.1-1.5,2.3-2.3,3.6-.8,1.3-1.4,2.5-2,3.7-.2.4-.4.9-.6,1.5-.2.6-.4,1.2-.5,1.8-.1.6-.2,1.3-.2,1.9,0,1.3.3,2.5.9,3.5.6,1,1.4,1.8,2.4,2.3,1.1.6,2.3.8,3.7.8ZM7,18.4c-1.1,0-2-.2-2.8-.6-.8-.4-1.4-1-1.9-1.8-.4-.8-.7-1.6-.7-2.7s.1-1.6.4-2.4c.3-.8.5-1.5.8-2.1.6-1.3,1.2-2.5,1.9-3.6.7-1.1,1.4-2.2,2.1-3.2,0,0,0,0,.1,0,0,0,0,0,.1,0,.7,1,1.4,2.1,2.1,3.2.7,1.1,1.3,2.3,1.9,3.6.3.6.6,1.4.8,2.1.3.8.4,1.6.4,2.4s-.2,1.9-.7,2.7c-.4.8-1.1,1.4-1.9,1.8-.8.4-1.7.6-2.8.6Z"/>
</svg>